<svg width="26" height="26" viewBox="0 0 26 26" fill="none" xmlns="http://www.w3.org/2000/svg">
<path d="M23.3108 23.3098L12.9995 2.6875L2.68848 23.3098L23.3108 2.6875L12.9995 23.3098L2.68848 2.6875L23.3108 23.3098Z" stroke="#E6E1E5" stroke-width="0.5" stroke-linejoin="round"/>
<path d="M12.9995 2.68894L2.68848 13L12.9995 23.3111L23.3106 13L12.9995 2.68894Z" stroke="#E6E1E5" stroke-width="0.5" stroke-linejoin="round"/>
<path d="M13.0003 13.0007L7.84473 18.1562L13.0003 23.3118L18.1558 18.1562L13.0003 13.0007Z" stroke="#E6E1E5" stroke-width="0.5" stroke-linejoin="round"/>
<path d="M2.68848 13H23.3108" stroke="#E6E1E5" stroke-width="0.5" stroke-linejoin="round"/>
<path d="M23.3108 2.6875H2.68848" stroke="#E6E1E5" stroke-width="0.5" stroke-linejoin="round"/>
<path d="M23.3108 23.3125H2.68848" stroke="#E6E1E5" stroke-width="0.5" stroke-linejoin="round"/>
<path d="M2.68884 4.37769C3.62157 4.37769 4.37769 3.62157 4.37769 2.68884C4.37769 1.75612 3.62157 1 2.68884 1C1.75612 1 1 1.75612 1 2.68884C1 3.62157 1.75612 4.37769 2.68884 4.37769Z" fill="#1C1B1F" stroke="#E6E1E5" stroke-linejoin="round"/>
<path d="M23.3109 4.37769C24.2436 4.37769 24.9998 3.62157 24.9998 2.68884C24.9998 1.75612 24.2436 1 23.3109 1C22.3782 1 21.6221 1.75612 21.6221 2.68884C21.6221 3.62157 22.3782 4.37769 23.3109 4.37769Z" fill="#1C1B1F" stroke="#E6E1E5" stroke-linejoin="round"/>
<path d="M12.9994 4.37769C13.9321 4.37769 14.6882 3.62157 14.6882 2.68884C14.6882 1.75612 13.9321 1 12.9994 1C12.0667 1 11.3105 1.75612 11.3105 2.68884C11.3105 3.62157 12.0667 4.37769 12.9994 4.37769Z" fill="#1C1B1F" stroke="#E6E1E5" stroke-linejoin="round"/>
<path d="M2.68884 14.6902C3.62157 14.6902 4.37769 13.9341 4.37769 13.0013C4.37769 12.0686 3.62157 11.3125 2.68884 11.3125C1.75612 11.3125 1 12.0686 1 13.0013C1 13.9341 1.75612 14.6902 2.68884 14.6902Z" fill="#1C1B1F" stroke="#E6E1E5" stroke-linejoin="round"/>
<path d="M23.3109 14.6902C24.2436 14.6902 24.9998 13.9341 24.9998 13.0013C24.9998 12.0686 24.2436 11.3125 23.3109 11.3125C22.3782 11.3125 21.6221 12.0686 21.6221 13.0013C21.6221 13.9341 22.3782 14.6902 23.3109 14.6902Z" fill="#1C1B1F" stroke="#E6E1E5" stroke-linejoin="round"/>
<path d="M12.9994 14.6902C13.9321 14.6902 14.6882 13.9341 14.6882 13.0013C14.6882 12.0686 13.9321 11.3125 12.9994 11.3125C12.0667 11.3125 11.3105 12.0686 11.3105 13.0013C11.3105 13.9341 12.0667 14.6902 12.9994 14.6902Z" fill="#1C1B1F" stroke="#E6E1E5" stroke-linejoin="round"/>
<path d="M2.68884 25.0027C3.62157 25.0027 4.37769 24.2466 4.37769 23.3138C4.37769 22.3811 3.62157 21.625 2.68884 21.625C1.75612 21.625 1 22.3811 1 23.3138C1 24.2466 1.75612 25.0027 2.68884 25.0027Z" fill="#1C1B1F" stroke="#E6E1E5" stroke-linejoin="round"/>
<path d="M23.3109 25.0027C24.2436 25.0027 24.9998 24.2466 24.9998 23.3138C24.9998 22.3811 24.2436 21.625 23.3109 21.625C22.3782 21.625 21.6221 22.3811 21.6221 23.3138C21.6221 24.2466 22.3782 25.0027 23.3109 25.0027Z" fill="#1C1B1F" stroke="#E6E1E5" stroke-linejoin="round"/>
<path d="M12.9994 25.0027C13.9321 25.0027 14.6882 24.2466 14.6882 23.3138C14.6882 22.3811 13.9321 21.625 12.9994 21.625C12.0667 21.625 11.3105 22.3811 11.3105 23.3138C11.3105 24.2466 12.0667 25.0027 12.9994 25.0027Z" fill="#1C1B1F" stroke="#E6E1E5" stroke-linejoin="round"/>
</svg>
