<svg width="84" height="84" viewBox="0 0 84 84" fill="none" xmlns="http://www.w3.org/2000/svg">
<path fill-rule="evenodd" clip-rule="evenodd" d="M63 0L56 -2.44784e-06L56 7L63 7L70 7H77V14V21L77 28L84 28V21V14C84 6.26801 77.732 0 70 0H63ZM7 14L7 7H14H21L28 7L28 2.14186e-06L21 0H14C6.26801 0 0 6.26801 0 14V21L-3.87835e-06 28L7 28L7 21V14ZM84 70C84 77.732 77.732 84 70 84H63H56L56 77H63H70H77V70L77 63L77 56L84 56V63V70ZM21 77H14L14 70L21 70L21 63H28L28 56H35L35 63H42H49L49 56H56L56 49L63 49L63 42V35L56 35V28L49 28L49 21L42 21H35L35 28L28 28L28 35H21L21 42V49L28 49L28 56H21L21 63L14 63L14 70H7L7 77L7 70L7 63L7 56L0 56L-3.87835e-06 63L0 70C0 77.732 6.26801 84 14 84H21H28L28 77H21ZM28 49L28 42L28 35H35L35 28H42L49 28L49 35L56 35V42L56 49H49V56L42 56H35V49H28Z" fill="#14E76F" style="fill:#14E76F;fill:color(display-p3 0.0784 0.9059 0.4353);fill-opacity:1;"/>
</svg>
