<svg width="32" height="32" viewBox="0 0 32 32" fill="none" xmlns="http://www.w3.org/2000/svg">
<path fill-rule="evenodd" clip-rule="evenodd" d="M15.9408 7.86426C10.9716 7.86426 6.94678 11.8731 6.94678 16.8225C6.94678 20.7866 9.52132 24.1347 13.0965 25.3217C13.5462 25.4001 13.7148 25.1313 13.7148 24.8962C13.7148 24.6834 13.7035 23.9779 13.7035 23.2277C11.4438 23.642 10.8592 22.679 10.6793 22.1751C10.5781 21.9175 10.1397 21.1225 9.75741 20.9097C9.44262 20.7418 8.99292 20.3274 9.74617 20.3162C10.4545 20.3051 10.9604 20.9657 11.129 21.2345C11.9385 22.5894 13.2314 22.2087 13.7485 21.9735C13.8272 21.3912 14.0633 20.9993 14.3219 20.7754C12.3207 20.5514 10.2296 19.7788 10.2296 16.3522C10.2296 15.378 10.5781 14.5718 11.1515 13.9447C11.0616 13.7207 10.7468 12.8025 11.2414 11.5707C11.2414 11.5707 11.9947 11.3356 13.7148 12.489C14.4343 12.2874 15.1988 12.1866 15.9633 12.1866C16.7278 12.1866 17.4923 12.2874 18.2118 12.489C19.9319 11.3244 20.6852 11.5707 20.6852 11.5707C21.1798 12.8025 20.8651 13.7207 20.7751 13.9447C21.3485 14.5718 21.697 15.3668 21.697 16.3522C21.697 19.79 19.5946 20.5514 17.5935 20.7754C17.9195 21.0553 18.2006 21.5928 18.2006 22.4326C18.2006 23.6308 18.1893 24.5938 18.1893 24.8962C18.1893 25.1313 18.358 25.4113 18.8077 25.3217C22.3603 24.1347 24.9349 20.7754 24.9349 16.8225C24.9349 11.8731 20.91 7.86426 15.9408 7.86426Z" fill="currentColor"/>
</svg>
