<svg width="84" height="84" viewBox="0 0 84 84" fill="none" xmlns="http://www.w3.org/2000/svg">
<path fill-rule="evenodd" clip-rule="evenodd" d="M63 0H56V7H63H70H77V14V21V28H84V21V14C84 6.26801 77.732 0 70 0H63ZM7 77H14H21H28V84H21H14C6.26801 84 0 77.732 0 70V63V56H7L7 63L7 70L7 77ZM70 84C77.732 84 84 77.732 84 70V63V56H77V63V70V77H70H63H56V84H63H70ZM7 7L7 14L7 21L7 28H0V21V14C1.93187e-06 6.26801 6.26802 0 14 0H21H28V7L21 7L14 7L7 7ZM63 21L63 28L56 28L56 21L63 21ZM63 21V14L70 14L70 21L63 21ZM49 35V28L56 28V35H49ZM49 49V42L49 35L42 35L35 35L35 28L28 28L28 21L21 21L21 14L14 14L14 21L21 21L21 28L28 28V35L35 35V42V49L28 49L28 56L21 56L21 63H14L14 70H21L21 63L28 63L28 56H35V49H42L49 49ZM56 56H49L49 49L56 49V56ZM63 63L56 63V56L63 56L63 63ZM63 63H70V70H63L63 63Z" fill="#14E76F" style="fill:#14E76F;fill:color(display-p3 0.0784 0.9059 0.4353);fill-opacity:1;"/>
</svg>
