<svg width="84" height="84" viewBox="0 0 84 84" fill="none" xmlns="http://www.w3.org/2000/svg">
<path fill-rule="evenodd" clip-rule="evenodd" d="M84 14C84 6.26801 77.732 0 70 0H63H56V7H63H70H77V14V21V28H84V21V14ZM28 14C20.268 14 14 20.268 14 28C14 35.732 20.268 42 28 42C20.268 42 14 48.268 14 56C14 63.732 20.268 70 28 70C35.7299 70 41.9966 63.7354 42 56.0062C42.0034 63.7353 48.2701 70 56 70C63.732 70 70 63.732 70 56C70 48.2701 63.7353 42.0034 56.0062 42C63.7353 41.9966 70 35.7299 70 28C70 20.268 63.732 14 56 14C48.268 14 42 20.268 42 28C42 20.268 35.732 14 28 14ZM49 28V35L56 35H63V28V21L56 21H49V28ZM42 28.0062C41.9966 35.7329 35.7339 41.996 28.0074 42C35.736 42.004 42 48.2705 42 56C42 48.268 48.268 42 56 42C48.2701 42 42.0034 35.7353 42 28.0062ZM56 63H63V56V49L56 49H49V56V63L56 63ZM28 35H35V28V21L28 21H21V28L21 35L28 35ZM21 49V56L21 63L28 63H35V56V49L28 49H21ZM7 77H14H21H28V84H21H14C6.26801 84 0 77.732 0 70V63V56H7L7 63L7 70L7 77ZM70 84C77.732 84 84 77.732 84 70V63V56H77V63V70V77H70H63H56V84H63H70ZM7 7L7 14L7 21L7 28H0V21V14C1.93187e-06 6.26801 6.26802 0 14 0H21H28V7L21 7L14 7L7 7Z" fill="#14E76F" style="fill:#14E76F;fill:color(display-p3 0.0784 0.9059 0.4353);fill-opacity:1;"/>
</svg>
