<svg viewBox="0 0 32 32" fill="none" xmlns="http://www.w3.org/2000/svg">
<path d="M8.90246 15.9332C8.90246 15.9332 15.4128 13.1912 17.6706 12.2256C18.5362 11.8394 21.4715 10.6036 21.4715 10.6036C21.4715 10.6036 22.8262 10.0629 22.7133 11.376C22.6757 11.9167 22.3746 13.8091 22.0736 15.8559C21.622 18.7525 21.1328 21.9194 21.1328 21.9194C21.1328 21.9194 21.0575 22.8077 20.4178 22.9621C19.7781 23.1166 18.7243 22.4215 18.5362 22.267C18.3856 22.1511 15.7138 20.4132 14.7354 19.5635C14.4719 19.3318 14.1709 18.8684 14.773 18.3277C16.1278 17.0532 17.7459 15.4698 18.7243 14.4656C19.1759 14.0022 19.6275 12.9208 17.7459 14.2339C15.0741 16.1263 12.4398 17.9029 12.4398 17.9029C12.4398 17.9029 11.8377 18.289 10.7088 17.9414C9.57979 17.5939 8.26268 17.1304 8.26268 17.1304C8.26268 17.1304 7.35957 16.5511 8.90246 15.9332Z" fill="currentColor"/>
</svg>
