<svg width="32" height="32" viewBox="0 0 32 32" fill="none" xmlns="http://www.w3.org/2000/svg">
<path d="M24.9004 12.0986C24.6915 11.3132 24.0734 10.6936 23.2871 10.4812C21.8652 10.1001 16.1605 10.1001 16.1605 10.1001C16.1605 10.1001 10.4587 10.1001 9.03399 10.4812C8.25053 10.6906 7.63247 11.3103 7.42065 12.0986C7.04053 13.5241 7.04053 16.5001 7.04053 16.5001C7.04053 16.5001 7.04053 19.4761 7.42065 20.9016C7.62957 21.687 8.24763 22.3066 9.03399 22.519C10.4587 22.9001 16.1605 22.9001 16.1605 22.9001C16.1605 22.9001 21.8652 22.9001 23.2871 22.519C24.0705 22.3096 24.6886 21.6899 24.9004 20.9016C25.2805 19.4761 25.2805 16.5001 25.2805 16.5001C25.2805 16.5001 25.2805 13.5241 24.9004 12.0986Z" fill="currentColor"/>
<path d="M14.3383 19.2434L19.0767 16.5001L14.3383 13.7568V19.2434Z" fill="#242B2D"/>
</svg>
