<svg
  width="100%"
  height="100%"
  viewBox="0 0 80 80"
  fill="none"
  xmlns="http://www.w3.org/2000/svg"
>
  <g clip-path="url(#clip0_421_13045)">
    <path
      d="M40 80C62.0914 80 80 62.0914 80 40C80 17.9086 62.0914 0 40 0C17.9086 0 0 17.9086 0 40C0 62.0914 17.9086 80 40 80Z"
      fill="black"
    />
    <path
      d="M40 77.2636C60.5801 77.2636 77.2636 60.5801 77.2636 40C77.2636 19.4199 60.5801 2.73645 40 2.73645C19.4199 2.73645 2.73645 19.4199 2.73645 40C2.73645 60.5801 19.4199 77.2636 40 77.2636Z"
      fill="white"
    />
    <path
      d="M24.0224 32.471H23.9776V32.5084V45.5775L18.4673 32.4934L18.4598 32.471H18.4299H15.3047H11.7981H11.7607V32.5084V47.4916V47.529H11.7981H15.3047H15.3421V47.4916V34.4L20.8748 47.5065L20.8822 47.529H20.9121H24.0224H27.5215H27.5589V47.4916V32.5084V32.471H27.5215H24.0224Z"
      fill="black"
    />
    <path
      fill-rule="evenodd"
      clip-rule="evenodd"
      d="M23.8965 32.39H27.64V47.6101H20.8238L20.7989 47.5352L15.4232 34.8006V47.6101H11.6797V32.39H18.5183L18.5432 32.4649L23.8965 45.1761V32.39ZM23.9776 45.5776L18.4673 32.4935L18.4598 32.471H11.7608V47.529H15.3421V34.4L20.8748 47.5065L20.8823 47.529H27.5589V32.471H23.9776V45.5776Z"
      fill="black"
    />
    <path
      d="M68.2019 32.471H61.5178H61.4804L61.4729 32.5009L58.0486 45.6374L54.6169 32.5009L54.6094 32.471H54.5795H47.8804H47.8355V32.5084V47.4916V47.529H47.8804H51.3795H51.4169V47.4916V34.5047L54.8038 47.499L54.8112 47.529H54.8486H61.2337H61.2636L61.2711 47.499L64.658 34.5047V47.4916V47.529H64.6954H68.2019H68.2393V47.4916V32.5084V32.471H68.2019Z"
      fill="black"
    />
    <path
      fill-rule="evenodd"
      clip-rule="evenodd"
      d="M61.4171 32.39H68.3204V47.6101H64.5769V35.1372L61.3497 47.5187L61.3495 47.5195L61.3269 47.6101H54.7479L54.7253 47.5195L54.7251 47.5187L51.4979 35.1372V47.6101H47.7545V32.39H54.6727L54.6953 32.4804L54.6955 32.4813L58.0485 45.3163L61.3943 32.4813L61.3945 32.4805L61.4171 32.39ZM58.0486 45.6374L54.6168 32.5009L54.6094 32.471H47.8355V47.529H51.4168V34.5047L54.8038 47.4991L54.8112 47.529H61.2636L61.2711 47.4991L64.658 34.5047V47.529H68.2393V32.471H61.4804L61.4729 32.5009L58.0486 45.6374Z"
      fill="black"
    />
    <path
      d="M42.0711 32.471H42.0486L42.0412 32.486L37.7869 39.8804L33.5103 32.486L33.5028 32.471H33.4804H29.4355H29.3608L29.3982 32.5308L35.9851 43.9402V47.4916V47.529H36.0225H39.529H39.5664V47.4916V43.9402L46.1533 32.5308L46.1907 32.471H46.1159H42.0711Z"
      fill="black"
    />
    <path
      fill-rule="evenodd"
      clip-rule="evenodd"
      d="M41.9985 32.39H46.337L46.2228 32.5726L39.6475 43.9619V47.6101H35.904V43.9619L29.3286 32.5726L29.2145 32.39H33.5529L33.5817 32.4475L37.7868 39.7181L41.9697 32.4476L41.9985 32.39ZM42.0411 32.486L37.7869 39.8804L33.5103 32.486L33.5028 32.471H29.3608L29.3981 32.5308L35.9851 43.9402V47.529H39.5664V43.9402L46.1533 32.5308L46.1907 32.471H42.0486L42.0411 32.486Z"
      fill="black"
    />
  </g>
  <defs>
    <clipPath id="clip0_421_13045">
      <rect width="80" height="80" fill="white" />
    </clipPath>
  </defs>
</svg>
