<svg viewBox="0 0 200 200" fill="none" xmlns="http://www.w3.org/2000/svg">
    <path d="M170.7 29.3001C131.7 -9.7999 68.3001 -9.7999 29.3001 29.3001C-9.7999 68.4001 -9.7999 131.7 29.3001 170.7C68.4001 209.8 131.7 209.8 170.7 170.7C209.8 131.7 209.8 68.3001 170.7 29.3001ZM162.1 162.1C127.8 196.4 72.1001 196.4 37.8001 162.1C3.5001 127.8 3.5001 72.1001 37.8001 37.8001C72.1001 3.5001 127.8 3.5001 162.1 37.8001C196.5 72.2001 196.5 127.8 162.1 162.1Z" fill="#141521"/>
    <path d="M162.1 37.9C127.8 3.60005 72.1002 3.60005 37.8002 37.9C3.50019 72.2 3.50019 127.9 37.8002 162.2C72.1002 196.5 127.8 196.5 162.1 162.2C196.5 127.8 196.5 72.2 162.1 37.9ZM63.0002 170.7C56.8002 167.4 51.1002 163.2 46.1002 158.4V41.7C51.3002 36.7 57.2002 32.5 63.6002 29.1L137 140.9V29.3C143.2 32.6 148.9 36.8 153.9 41.6V158.3C148.7 163.3 142.8 167.5 136.4 170.9L63.0002 59.1V170.7Z" fill="white"/>
    <path d="M154 158.3V41.7C148.9 36.9 143.2 32.7 137.1 29.4V140.9L63.5 29C57.1 32.4 51.2 36.6 46 41.6V158.3C51.1 163.1 56.8 167.3 62.9 170.6V59.1L136.5 171C142.9 167.6 148.8 163.3 154 158.3Z" fill="#141521"/>
</svg>
