<svg viewBox="0 0 200 200" fill="none" xmlns="http://www.w3.org/2000/svg">
    <path d="M171.7,30.3001 C132.7,-8.7999 69.3001,-8.7999 30.3001,30.3001 C-8.7999,69.4001 -8.7999,132.7 30.3001,171.7 C69.4001,210.8 132.7,210.8 171.7,171.7 C210.8,132.7 210.8,69.3001 171.7,30.3001 Z M163.1,163.1 C128.8,197.4 73.1001,197.4 38.8001,163.1 C4.5001,128.8 4.5001,73.1001 38.8001,38.8001 C73.1001,4.5001 128.8,4.5001 163.1,38.8001 C197.5,73.2001 197.5,128.8 163.1,163.1 Z" id="Shape" fill="#141521"></path>
    <path d="M163.1,38.9 C128.8,4.60005 73.1002,4.60005 38.8002,38.9 C4.50019,73.2 4.50019,128.9 38.8002,163.2 C73.1002,197.5 128.8,197.5 163.1,163.2 C197.5,128.8 197.5,73.2 163.1,38.9 Z" id="Shape" fill="#FFFFFF"></path>
    <g id="T" transform="translate(25, 25) scale(5,5)">
        <path d="M18.4804688,24 C19.203125,24 19.7182617,23.8608398 20.0258789,23.5825195 C20.3334961,23.3041992 20.4873047,22.9453125 20.4873047,22.5058594 C20.4873047,22.0566406 20.3334961,21.6928711 20.0258789,21.4145508 C19.7182617,21.1362305 19.203125,20.9970703 18.4804688,20.9970703 L18.4804688,20.9970703 L16.4589844,20.9970703 L16.4589844,9.24902344 L19.7548828,9.24902344 L19.7548828,12.0908203 C19.7548828,12.8134766 19.894043,13.3286133 20.1723633,13.6362305 C20.4506836,13.9438477 20.8095703,14.0976562 21.2490234,14.0976562 C21.6982422,14.0976562 22.0620117,13.9438477 22.340332,13.6362305 C22.6186523,13.3286133 22.7578125,12.8134766 22.7578125,12.0908203 L22.7578125,12.0908203 L22.7578125,6.24609375 L7.20117188,6.23144531 L7.20117188,12.0908203 C7.20117188,12.8134766 7.34033203,13.3286133 7.61865234,13.6362305 C7.89697266,13.9438477 8.25585938,14.0976562 8.6953125,14.0976562 C9.14453125,14.0976562 9.50830078,13.9438477 9.78662109,13.6362305 C10.0649414,13.3286133 10.2041016,12.8134766 10.2041016,12.0908203 L10.2041016,12.0908203 L10.2041016,9.24902344 L13.4560547,9.24902344 L13.4560547,20.9970703 L11.4492188,20.9970703 C10.7265625,20.9970703 10.2114258,21.1362305 9.90380859,21.4145508 C9.59619141,21.6928711 9.44238281,22.0517578 9.44238281,22.4912109 C9.44238281,22.9404297 9.59619141,23.3041992 9.90380859,23.5825195 C10.2114258,23.8608398 10.7265625,24 11.4492188,24 L11.4492188,24 L18.4804688,24 Z" id="T" fill="#000" fill-rule="nonzero"></path>
    </g>
</svg>
