<svg version="1.1" id="Layer_1" xmlns="http://www.w3.org/2000/svg" xmlns:xlink="http://www.w3.org/1999/xlink" x="0px" y="0px"
	 width="100%" viewBox="0 0 2480 2480" enable-background="new 0 0 2480 2480" xml:space="preserve">
<path fill="#000000" opacity="1.000000" stroke="none" 
	d="
M2.000000,1156.000000 
	C2.000000,771.474121 2.000000,386.948273 2.000000,2.000000 
	C386.718231,2.000000 771.436646,2.000000 1157.575928,2.774093 
	C1156.895752,4.252493 1154.836182,5.386602 1152.687378,5.593789 
	C1133.805298,7.414357 1114.907104,9.069780 1095.226807,10.759283 
	C1084.722656,12.009069 1074.967529,13.036946 1065.296387,14.588613 
	C1046.388062,17.622320 1027.440552,20.518517 1008.669189,24.271704 
	C988.973267,28.209772 969.464844,33.085560 949.059448,37.567116 
	C946.606445,37.857994 944.916931,37.960854 943.338196,38.433754 
	C905.230347,49.848984 866.958191,60.757950 829.109192,72.977303 
	C809.630737,79.265816 790.909973,87.901482 771.094727,95.550079 
	C708.056335,120.873268 648.601501,151.681488 591.455200,186.981873 
	C581.890991,192.889832 572.727356,199.446106 562.717407,205.841736 
	C485.335510,255.803986 415.925385,314.480255 351.878967,379.639160 
	C350.056000,381.493774 348.766235,383.872528 346.598083,386.351074 
	C336.670746,396.616455 326.916168,406.152496 318.166016,416.535034 
	C296.527496,442.210358 274.620392,467.712158 254.140381,494.299805 
	C214.260880,546.072327 179.360336,601.135254 148.695190,658.878784 
	C118.683922,715.390991 92.776169,773.679565 71.820473,834.158081 
	C50.995865,894.258301 34.644413,955.509277 23.362127,1018.139221 
	C16.235693,1057.699341 10.648326,1097.425903 7.645359,1137.512329 
	C7.224460,1143.130981 6.797827,1148.756470 6.088929,1154.342651 
	C5.794058,1156.666138 4.936373,1159.359985 2.000000,1156.000000 
z"/>
<path fill="#000000" opacity="1.000000" stroke="none" 
	d="
M1144.000000,2482.000000 
	C763.472534,2482.000000 382.945099,2482.000000 2.000000,2482.000000 
	C2.000000,2092.614990 2.000000,1703.229980 2.840354,1312.796387 
	C4.341088,1313.846558 5.403334,1315.909912 5.592262,1318.050293 
	C6.408852,1327.301758 7.018379,1336.572510 7.615459,1345.841919 
	C10.071630,1383.973022 15.361381,1421.746460 21.943558,1459.353882 
	C31.523199,1514.087402 44.837513,1567.894409 61.760971,1620.828613 
	C86.347641,1697.732544 118.251434,1771.449707 157.290771,1842.110718 
	C196.026291,1912.221802 241.077148,1977.993042 292.739014,2039.196167 
	C304.506073,2053.136963 317.056641,2066.416016 329.501801,2080.542725 
	C338.064240,2090.107910 345.990631,2099.520020 354.754700,2108.074463 
	C375.889771,2128.703857 397.016846,2149.373779 418.914001,2169.179443 
	C435.849579,2184.497559 453.947357,2198.531006 471.971558,2213.595947 
	C480.738647,2220.616211 488.968445,2227.299561 497.402283,2233.714600 
	C538.868896,2265.256348 582.676025,2293.294678 627.428223,2319.866211 
	C637.853210,2326.055908 649.016357,2331.002197 660.245605,2337.048828 
	C661.758423,2338.312500 662.805664,2339.164307 663.980896,2339.765869 
	C705.744995,2361.139404 748.015625,2381.423828 791.896851,2398.136475 
	C807.088379,2403.922363 822.536743,2409.033447 838.378052,2414.957031 
	C882.580322,2430.489990 926.889465,2443.370117 972.065918,2453.111572 
	C987.937622,2456.534180 1003.978516,2459.171875 1020.532410,2462.681152 
	C1053.641235,2467.597900 1086.152588,2472.055908 1118.684082,2476.362061 
	C1125.906372,2477.318115 1133.209839,2477.647217 1140.452515,2478.470947 
	C1142.249756,2478.675537 1145.452026,2478.209473 1144.000000,2482.000000 
z"/>
<path fill="#000000" opacity="1.000000" stroke="none" 
	d="
M1330.000000,2.000000 
	C1713.857544,2.000000 2097.715088,2.000000 2482.000000,2.000000 
	C2482.000000,377.384888 2482.000000,752.769958 2481.270508,1129.683350 
	C2479.812988,1129.458130 2478.641357,1127.757446 2478.425049,1125.942993 
	C2476.303955,1108.153687 2474.590576,1090.313354 2472.288330,1072.548706 
	C2465.317139,1018.756775 2454.290039,965.764282 2439.924805,913.480469 
	C2410.317139,805.719543 2366.872070,703.805603 2309.638672,607.834778 
	C2279.080322,556.593994 2245.477295,507.387878 2207.102783,461.646027 
	C2185.742920,436.185822 2163.918457,411.044861 2141.083740,386.914246 
	C2120.303955,364.955353 2097.875244,344.556519 2075.900391,322.875854 
	C2049.050293,300.195190 2023.122681,277.266205 1995.772095,256.183319 
	C1919.572388,197.446091 1837.257935,148.730927 1749.337158,109.649597 
	C1727.213379,99.815414 1704.468994,91.377357 1681.312744,82.023506 
	C1661.278564,74.856789 1642.080688,67.535522 1622.562744,61.200005 
	C1605.227905,55.573128 1587.538086,51.039959 1569.348145,45.649433 
	C1535.447754,37.638149 1502.300781,29.539127 1468.921631,22.549688 
	C1450.818604,18.759012 1432.319946,16.858213 1413.201904,13.909479 
	C1398.085693,11.913866 1383.790894,9.888351 1369.441406,8.383907 
	C1357.681641,7.150996 1345.856567,6.545444 1334.061523,5.645791 
	C1331.152710,5.423922 1331.154907,5.395327 1330.000000,2.000000 
z"/>
<path fill="#000000" opacity="1.000000" stroke="none" 
	d="
M2482.000000,1354.000000 
	C2482.000000,1729.859741 2482.000000,2105.719482 2482.000000,2482.000000 
	C2103.281738,2482.000000 1724.563354,2482.000000 1344.315430,2481.265137 
	C1344.194214,2479.820801 1345.551147,2478.641357 1347.019287,2478.481201 
	C1354.873779,2477.624268 1362.792847,2477.302979 1370.622192,2476.279785 
	C1398.529907,2472.632324 1426.410522,2468.776123 1455.144531,2464.862793 
	C1484.524414,2458.810791 1513.163086,2453.338135 1541.560669,2446.816162 
	C1559.249390,2442.753906 1576.573853,2437.106201 1594.844482,2432.142090 
	C1600.700806,2430.654297 1605.865479,2429.451660 1610.832886,2427.692139 
	C1641.329224,2416.889404 1671.780884,2405.960693 1702.995361,2394.897949 
	C1714.292969,2390.337891 1725.003662,2386.301025 1735.360352,2381.500488 
	C1760.088379,2370.039062 1784.854858,2358.629395 1809.236816,2346.459473 
	C1869.238037,2316.510742 1925.746704,2280.830078 1979.677734,2241.039062 
	C2015.833496,2214.363281 2050.923828,2186.328613 2083.269287,2155.113281 
	C2110.550537,2128.784912 2137.848877,2102.374756 2163.551514,2074.534912 
	C2197.400391,2037.871460 2228.250977,1998.649048 2257.070068,1957.831177 
	C2302.509521,1893.473022 2341.425049,1825.434570 2374.022217,1753.742676 
	C2402.992188,1690.027466 2426.233154,1624.269775 2443.892578,1556.565674 
	C2459.084717,1498.321045 2470.223145,1439.301270 2476.330078,1379.378052 
	C2477.070068,1372.116943 2477.632080,1364.836426 2478.475586,1357.588135 
	C2478.686279,1355.777344 2478.205322,1352.590210 2482.000000,1354.000000 
z"/>
<path fill="#FD0059" opacity="1.000000" stroke="none" 
	d="
M2482.000000,1353.062744 
	C2478.205322,1352.590210 2478.686279,1355.777344 2478.475586,1357.588135 
	C2477.632080,1364.836426 2477.070068,1372.116943 2476.330078,1379.378052 
	C2470.223145,1439.301270 2459.084717,1498.321045 2443.892578,1556.565674 
	C2426.233154,1624.269775 2402.992188,1690.027466 2374.022217,1753.742676 
	C2341.425049,1825.434570 2302.509521,1893.473022 2257.070068,1957.831177 
	C2228.250977,1998.649048 2197.400391,2037.871460 2163.551514,2074.534912 
	C2137.848877,2102.374756 2110.550537,2128.784912 2083.269287,2155.113281 
	C2050.923828,2186.328613 2015.833496,2214.363281 1979.677734,2241.039062 
	C1925.746704,2280.830078 1869.238037,2316.510742 1809.236816,2346.459473 
	C1784.854858,2358.629395 1760.088379,2370.039062 1735.360352,2381.500488 
	C1725.003662,2386.301025 1714.292969,2390.337891 1702.934937,2393.890381 
	C1702.222534,2384.750732 1700.063599,2375.522217 1702.984741,2368.367676 
	C1706.637573,2359.420410 1703.389404,2351.443115 1703.707520,2343.142334 
	C1704.223755,2329.672607 1705.858032,2316.132568 1704.636475,2302.210449 
	C1706.131104,2301.343262 1706.999023,2300.838623 1707.911499,2300.435059 
	C1872.842163,2227.512939 2013.766113,2122.305664 2129.126953,1983.796509 
	C2295.175537,1784.427856 2384.085449,1554.437256 2397.438477,1295.429810 
	C2400.011230,1245.527954 2398.809570,1195.543945 2394.555176,1145.641113 
	C2389.225586,1083.130127 2379.285156,1021.439026 2363.923584,960.643433 
	C2319.840820,786.178650 2239.296875,630.459351 2122.668213,493.482666 
	C2104.113770,471.691101 2084.243408,451.019867 2065.204102,428.914398 
	C2066.549561,423.919678 2068.180664,419.901825 2068.675049,415.748596 
	C2069.418701,409.502869 2074.961914,403.035431 2069.638428,396.963745 
	C2062.773438,389.134186 2062.122070,381.922882 2069.412598,374.247559 
	C2069.738037,373.904999 2069.454346,372.983826 2069.454346,371.716705 
	C2065.993652,368.276642 2060.073975,365.611786 2062.831055,358.350494 
	C2064.850586,353.031799 2069.009521,354.874359 2072.047607,355.040344 
	C2072.672607,349.993500 2073.195801,345.550232 2073.778809,341.114838 
	C2074.552490,335.230011 2075.373047,329.351349 2076.173340,323.470032 
	C2097.875244,344.556519 2120.303955,364.955353 2141.083740,386.914246 
	C2163.918457,411.044861 2185.742920,436.185822 2207.102783,461.646027 
	C2245.477295,507.387878 2279.080322,556.593994 2309.638672,607.834778 
	C2366.872070,703.805603 2410.317139,805.719543 2439.924805,913.480469 
	C2454.290039,965.764282 2465.317139,1018.756775 2472.288330,1072.548706 
	C2474.590576,1090.313354 2476.303955,1108.153687 2478.425049,1125.942993 
	C2478.641357,1127.757446 2479.812988,1129.458130 2481.270508,1130.605713 
	C2482.000000,1204.041748 2482.000000,1278.083618 2482.000000,1353.062744 
z"/>
<path fill="#FD6141" opacity="1.000000" stroke="none" 
	d="
M329.246643,2079.999756 
	C317.056641,2066.416016 304.506073,2053.136963 292.739014,2039.196167 
	C241.077148,1977.993042 196.026291,1912.221802 157.290771,1842.110718 
	C118.251434,1771.449707 86.347641,1697.732544 61.760971,1620.828613 
	C44.837513,1567.894409 31.523199,1514.087402 21.943558,1459.353882 
	C15.361381,1421.746460 10.071630,1383.973022 7.615459,1345.841919 
	C7.018379,1336.572510 6.408852,1327.301758 5.592262,1318.050293 
	C5.403334,1315.909912 4.341088,1313.846558 2.840354,1311.873901 
	C2.000000,1272.624878 2.000000,1233.249756 2.696669,1192.739746 
	C3.783891,1185.246948 4.191141,1178.889771 4.456792,1172.526733 
	C4.462687,1172.385498 2.854996,1172.177124 2.000000,1172.000000 
	C2.000000,1167.258911 2.000000,1162.517700 2.000000,1156.888306 
	C4.936373,1159.359985 5.794058,1156.666138 6.088929,1154.342651 
	C6.797827,1148.756470 7.224460,1143.130981 7.645359,1137.512329 
	C10.648326,1097.425903 16.235693,1057.699341 23.362127,1018.139221 
	C34.644413,955.509277 50.995865,894.258301 71.820473,834.158081 
	C92.776169,773.679565 118.683922,715.390991 148.695190,658.878784 
	C179.360336,601.135254 214.260880,546.072327 254.140381,494.299805 
	C274.620392,467.712158 296.527496,442.210358 318.166016,416.535034 
	C326.916168,406.152496 336.670746,396.616455 346.819336,387.298340 
	C349.111511,397.039673 350.702759,406.157318 351.959839,415.320801 
	C354.039307,430.478943 347.020142,445.613251 351.698639,460.841003 
	C352.030396,461.920807 351.116547,463.384277 350.778839,464.668579 
	C347.058563,478.817993 346.556641,492.851044 352.077698,507.275665 
	C288.410614,585.358521 235.344467,669.326538 193.521423,760.365295 
	C126.249481,906.800049 91.659683,1060.733765 88.462120,1221.678833 
	C86.775948,1306.550293 94.636253,1390.659058 111.634445,1473.912476 
	C141.932693,1622.306519 199.339981,1759.333130 283.605133,1885.092407 
	C298.609344,1907.485229 314.815765,1929.072510 330.144287,1951.775146 
	C329.368286,1953.753174 328.206390,1955.273804 328.571472,1956.177979 
	C332.204346,1965.176758 325.094452,1975.258179 331.436707,1983.996216 
	C332.000854,1984.773682 331.152161,1986.519043 331.084595,1987.821411 
	C330.446564,2000.127197 326.730957,2012.421387 331.588593,2024.754395 
	C332.597107,2027.314941 331.849121,2030.640747 331.636078,2033.593994 
	C331.187073,2039.818726 330.346924,2046.020508 330.049316,2052.250000 
	C329.607788,2061.491455 329.497742,2070.749023 329.246643,2079.999756 
z"/>
<path fill="#FD2B4F" opacity="1.000000" stroke="none" 
	d="
M1329.062744,2.000000 
	C1331.154907,5.395327 1331.152710,5.423922 1334.061523,5.645791 
	C1345.856567,6.545444 1357.681641,7.150996 1369.441406,8.383907 
	C1383.790894,9.888351 1398.085693,11.913866 1413.202148,14.792110 
	C1414.666626,32.711697 1415.932007,49.558369 1415.786743,66.392868 
	C1415.692139,77.369125 1415.896729,88.638809 1410.759399,99.196487 
	C1365.071655,93.011742 1320.113159,88.816185 1274.882202,87.850662 
	C1265.919922,87.659348 1256.959106,87.391411 1247.998047,86.333542 
	C1248.799072,75.686798 1249.405029,65.844688 1250.443115,56.048374 
	C1252.278687,38.724487 1255.235596,21.364594 1246.212402,4.940386 
	C1245.782349,4.157671 1246.054688,2.988963 1246.000000,2.000000 
	C1273.375122,2.000000 1300.750244,2.000000 1329.062744,2.000000 
z"/>
<path fill="#FE354D" opacity="1.000000" stroke="none" 
	d="
M1245.062744,2.000000 
	C1246.054688,2.988963 1245.782349,4.157671 1246.212402,4.940386 
	C1255.235596,21.364594 1252.278687,38.724487 1250.443115,56.048374 
	C1249.405029,65.844688 1248.799072,75.686798 1247.077271,86.517754 
	C1211.969727,88.932030 1177.771362,90.099472 1143.602539,91.846756 
	C1127.705322,92.659691 1111.865723,94.598114 1095.994629,95.169136 
	C1095.326050,86.458298 1094.384521,78.615601 1094.075439,70.748077 
	C1093.741943,62.257504 1093.748291,53.734406 1094.061401,45.242275 
	C1094.485352,33.744526 1095.342529,22.262749 1096.013794,10.774117 
	C1114.907104,9.069780 1133.805298,7.414357 1152.687378,5.593789 
	C1154.836182,5.386602 1156.895752,4.252493 1158.498291,2.774093 
	C1186.708496,2.000000 1215.416870,2.000000 1245.062744,2.000000 
z"/>
<path fill="#FD394C" opacity="1.000000" stroke="none" 
	d="
M1144.929321,2482.000000 
	C1145.452026,2478.209473 1142.249756,2478.675537 1140.452515,2478.470947 
	C1133.209839,2477.647217 1125.906372,2477.318115 1118.684082,2476.362061 
	C1086.152588,2472.055908 1053.641235,2467.597900 1020.548401,2461.732910 
	C1020.201294,2432.329346 1019.038818,2404.386963 1020.798401,2376.385742 
	C1046.574341,2380.301758 1071.468262,2384.903809 1096.542603,2388.083008 
	C1123.607178,2391.513916 1150.840332,2393.614746 1177.999512,2397.110840 
	C1177.611816,2400.520264 1177.691772,2403.297852 1176.759033,2405.678467 
	C1171.955933,2417.938232 1173.241089,2430.170654 1176.160400,2442.541748 
	C1176.962402,2445.940430 1178.116089,2450.099609 1176.900391,2452.976562 
	C1172.930420,2462.370850 1172.538696,2472.150391 1172.000000,2482.000000 
	C1163.286255,2482.000000 1154.572388,2482.000000 1144.929321,2482.000000 
z"/>
<path fill="#FE304F" opacity="1.000000" stroke="none" 
	d="
M1172.937256,2482.000000 
	C1172.538696,2472.150391 1172.930420,2462.370850 1176.900391,2452.976562 
	C1178.116089,2450.099609 1176.962402,2445.940430 1176.160400,2442.541748 
	C1173.241089,2430.170654 1171.955933,2417.938232 1176.759033,2405.678467 
	C1177.691772,2403.297852 1177.611816,2400.520264 1178.914795,2396.979980 
	C1203.020508,2396.593018 1226.212036,2397.644043 1249.400146,2397.574951 
	C1273.576660,2397.503174 1297.750000,2396.351562 1321.944946,2396.591064 
	C1321.475098,2404.433838 1319.269287,2411.799805 1320.912476,2418.173584 
	C1323.160034,2426.891846 1321.982422,2435.237061 1321.923340,2443.743896 
	C1321.896240,2447.656738 1320.806519,2451.571289 1320.874023,2455.473389 
	C1321.026978,2464.319580 1321.598633,2473.158203 1322.000000,2482.000000 
	C1272.624878,2482.000000 1223.249756,2482.000000 1172.937256,2482.000000 
z"/>
<path fill="#FD2750" opacity="1.000000" stroke="none" 
	d="
M1322.916138,2482.000000 
	C1321.598633,2473.158203 1321.026978,2464.319580 1320.874023,2455.473389 
	C1320.806519,2451.571289 1321.896240,2447.656738 1321.923340,2443.743896 
	C1321.982422,2435.237061 1323.160034,2426.891846 1320.912476,2418.173584 
	C1319.269287,2411.799805 1321.475098,2404.433838 1322.672119,2396.228027 
	C1367.118774,2392.044434 1410.483154,2386.102783 1453.778076,2379.750977 
	C1454.581421,2384.850098 1455.577515,2389.028809 1455.946533,2393.262207 
	C1456.789307,2402.932617 1457.568604,2412.621094 1457.905762,2422.318604 
	C1458.157104,2429.546875 1459.443726,2437.461426 1457.050049,2443.866943 
	C1454.363892,2451.054932 1453.953247,2457.795410 1454.301392,2464.999023 
	C1426.410522,2468.776123 1398.529907,2472.632324 1370.622192,2476.279785 
	C1362.792847,2477.302979 1354.873779,2477.624268 1347.019287,2478.481201 
	C1345.551147,2478.641357 1344.194214,2479.820801 1343.393066,2481.265137 
	C1337.277466,2482.000000 1330.554810,2482.000000 1322.916138,2482.000000 
z"/>
<path fill="#111726" opacity="1.000000" stroke="none" 
	d="
M2.000000,1172.908203 
	C2.854996,1172.177124 4.462687,1172.385498 4.456792,1172.526733 
	C4.191141,1178.889771 3.783891,1185.246948 2.696669,1191.802368 
	C2.000000,1185.938843 2.000000,1179.877563 2.000000,1172.908203 
z"/>
<path fill="#FD5843" opacity="1.000000" stroke="none" 
	d="
M352.295471,506.658752 
	C346.556641,492.851044 347.058563,478.817993 350.778839,464.668579 
	C351.116547,463.384277 352.030396,461.920807 351.698639,460.841003 
	C347.020142,445.613251 354.039307,430.478943 351.959839,415.320801 
	C350.702759,406.157318 349.111511,397.039673 347.449158,386.954163 
	C348.766235,383.872528 350.056000,381.493774 351.878967,379.639160 
	C415.925385,314.480255 485.335510,255.803986 563.398560,206.183746 
	C569.218628,209.227905 571.037903,212.937622 568.957886,218.201599 
	C566.186829,225.214447 566.327942,232.258118 568.689331,239.435516 
	C569.473450,241.818924 569.378967,244.587112 569.243042,247.155945 
	C569.017273,251.420425 568.140991,255.659927 568.053833,259.920502 
	C567.772949,273.652466 570.280884,287.473389 566.584961,301.114685 
	C566.366821,301.919708 567.879028,303.193573 568.194397,304.815002 
	C505.921600,350.333984 448.781769,400.660156 396.817505,456.793304 
	C381.682434,473.142609 367.120239,490.022217 352.295471,506.658752 
z"/>
<path fill="#FD4E47" opacity="1.000000" stroke="none" 
	d="
M568.585999,304.249237 
	C567.879028,303.193573 566.366821,301.919708 566.584961,301.114685 
	C570.280884,287.473389 567.772949,273.652466 568.053833,259.920502 
	C568.140991,255.659927 569.017273,251.420425 569.243042,247.155945 
	C569.378967,244.587112 569.473450,241.818924 568.689331,239.435516 
	C566.327942,232.258118 566.186829,225.214447 568.957886,218.201599 
	C571.037903,212.937622 569.218628,209.227905 564.059692,206.044830 
	C572.727356,199.446106 581.890991,192.889832 591.455200,186.981873 
	C648.601501,151.681488 708.056335,120.873268 771.135132,96.496933 
	C772.619385,105.286263 773.718445,113.192955 773.899719,121.120636 
	C774.125427,130.992645 774.821960,141.104767 773.079834,150.707703 
	C770.877075,162.849945 772.948120,173.603149 777.916504,184.683075 
	C718.252808,211.524277 661.518799,242.315765 607.511963,278.085876 
	C594.478088,286.718567 581.558289,295.523499 568.585999,304.249237 
z"/>
<path fill="#FD4449" opacity="1.000000" stroke="none" 
	d="
M778.408386,184.169250 
	C772.948120,173.603149 770.877075,162.849945 773.079834,150.707703 
	C774.821960,141.104767 774.125427,130.992645 773.899719,121.120636 
	C773.718445,113.192955 772.619385,105.286263 771.887207,96.423393 
	C790.909973,87.901482 809.630737,79.265816 829.109192,72.977303 
	C866.958191,60.757950 905.230347,49.848984 943.338196,38.433754 
	C944.916931,37.960854 946.606445,37.857994 949.092712,38.511047 
	C950.955872,50.275467 951.446899,61.196079 953.177063,71.916702 
	C954.258545,78.617790 954.122559,84.451302 949.379639,89.509445 
	C947.113892,91.925690 946.649414,94.198669 947.378784,97.554909 
	C949.268311,106.248917 950.501343,115.085594 951.341187,124.241501 
	C909.276917,135.853394 868.375549,148.669510 828.369080,164.223862 
	C811.656860,170.721512 795.058533,177.511948 778.408386,184.169250 
z"/>
<path fill="#FD3D4B" opacity="1.000000" stroke="none" 
	d="
M951.996399,123.865334 
	C950.501343,115.085594 949.268311,106.248917 947.378784,97.554909 
	C946.649414,94.198669 947.113892,91.925690 949.379639,89.509445 
	C954.122559,84.451302 954.258545,78.617790 953.177063,71.916702 
	C951.446899,61.196079 950.955872,50.275467 949.907776,38.495461 
	C969.464844,33.085560 988.973267,28.209772 1008.669189,24.271704 
	C1027.440552,20.518517 1046.388062,17.622320 1065.296387,14.588613 
	C1074.967529,13.036946 1084.722656,12.009069 1095.226807,10.759282 
	C1095.342529,22.262749 1094.485352,33.744526 1094.061401,45.242275 
	C1093.748291,53.734406 1093.741943,62.257504 1094.075439,70.748077 
	C1094.384521,78.615601 1095.326050,86.458298 1095.269531,95.504791 
	C1064.811768,101.782570 1035.014771,106.551987 1005.357117,112.070274 
	C987.458313,115.400620 969.776001,119.894356 951.996399,123.865334 
z"/>
<path fill="#FE5345" opacity="1.000000" stroke="none" 
	d="
M659.839844,2336.520508 
	C649.016357,2331.002197 637.853210,2326.055908 627.428223,2319.866211 
	C582.676025,2293.294678 538.868896,2265.256348 497.402283,2233.714600 
	C488.968445,2227.299561 480.738647,2220.616211 472.323059,2212.748535 
	C472.497803,2210.835693 472.882416,2210.254639 473.013123,2209.621338 
	C475.315247,2198.465088 471.920898,2186.470947 477.984131,2175.864990 
	C476.047424,2154.467529 482.650940,2132.597900 474.373993,2111.514648 
	C473.574524,2109.478516 474.074158,2106.932129 474.551453,2104.885742 
	C512.278076,2137.957031 550.918823,2168.899414 592.145081,2196.422852 
	C614.526550,2211.364990 635.941956,2227.859131 659.997437,2241.080811 
	C660.670776,2249.479492 661.500549,2257.026611 661.963074,2264.596191 
	C662.749268,2277.463135 663.659729,2290.340088 663.812256,2303.220947 
	C663.893433,2310.079834 662.561646,2316.964355 661.739685,2323.821777 
	C661.230530,2328.069580 660.481384,2332.288574 659.839844,2336.520508 
z"/>
<path fill="#FE5B43" opacity="1.000000" stroke="none" 
	d="
M473.970764,2104.622559 
	C474.074158,2106.932129 473.574524,2109.478516 474.373993,2111.514648 
	C482.650940,2132.597900 476.047424,2154.467529 477.984131,2175.864990 
	C471.920898,2186.470947 475.315247,2198.465088 473.013123,2209.621338 
	C472.882416,2210.254639 472.497803,2210.835693 471.879852,2212.288086 
	C453.947357,2198.531006 435.849579,2184.497559 418.914001,2169.179443 
	C397.016846,2149.373779 375.889771,2128.703857 354.754700,2108.074463 
	C345.990631,2099.520020 338.064240,2090.107910 329.501770,2080.542725 
	C329.497742,2070.749023 329.607788,2061.491455 330.049316,2052.250000 
	C330.346924,2046.020508 331.187073,2039.818726 331.636078,2033.593994 
	C331.849121,2030.640747 332.597107,2027.314941 331.588593,2024.754395 
	C326.730957,2012.421387 330.446564,2000.127197 331.084595,1987.821411 
	C331.152161,1986.519043 332.000854,1984.773682 331.436707,1983.996216 
	C325.094452,1975.258179 332.204346,1965.176758 328.571472,1956.177979 
	C328.206390,1955.273804 329.368286,1953.753174 330.713379,1952.173584 
	C360.199677,1988.093140 390.371094,2022.983643 423.096802,2055.587646 
	C439.779816,2072.208496 456.995758,2088.294678 473.970764,2104.622559 
z"/>
<path fill="#FD4A48" opacity="1.000000" stroke="none" 
	d="
M660.245667,2337.048828 
	C660.481384,2332.288574 661.230530,2328.069580 661.739685,2323.821777 
	C662.561646,2316.964355 663.893433,2310.079834 663.812256,2303.220947 
	C663.659729,2290.340088 662.749268,2277.463135 661.963074,2264.596191 
	C661.500549,2257.026611 660.670776,2249.479492 660.676819,2241.211914 
	C707.186646,2267.078613 754.482605,2290.716064 803.502991,2310.861328 
	C817.633301,2316.668701 831.822876,2322.331299 845.989258,2328.935303 
	C845.614258,2345.645020 845.523987,2361.480225 840.857300,2376.891602 
	C839.839905,2380.251709 839.015564,2385.068359 840.636963,2387.574463 
	C846.152283,2396.099609 843.788452,2403.249268 838.863953,2410.620605 
	C838.171448,2411.657227 838.182434,2413.163818 837.867798,2414.452881 
	C822.536743,2409.033447 807.088379,2403.922363 791.896851,2398.136475 
	C748.015625,2381.423828 705.744995,2361.139404 663.980896,2339.765869 
	C662.805664,2339.164307 661.758423,2338.312500 660.245667,2337.048828 
z"/>
<path fill="#FD414A" opacity="1.000000" stroke="none" 
	d="
M838.378052,2414.957031 
	C838.182434,2413.163818 838.171448,2411.657227 838.863953,2410.620605 
	C843.788452,2403.249268 846.152283,2396.099609 840.636963,2387.574463 
	C839.015564,2385.068359 839.839905,2380.251709 840.857300,2376.891602 
	C845.523987,2361.480225 845.614258,2345.645020 846.744873,2328.954102 
	C880.444214,2338.418213 913.206848,2349.388428 946.401489,2358.842041 
	C970.638367,2365.744385 995.443848,2370.649658 1019.995911,2376.445068 
	C1019.038818,2404.386963 1020.201294,2432.329346 1019.958191,2461.219727 
	C1003.978516,2459.171875 987.937622,2456.534180 972.065918,2453.111572 
	C926.889465,2443.370117 882.580322,2430.489990 838.378052,2414.957031 
z"/>
<path fill="#FD0155" opacity="1.000000" stroke="none" 
	d="
M2075.900391,322.875854 
	C2075.373047,329.351349 2074.552490,335.230011 2073.778809,341.114838 
	C2073.195801,345.550232 2072.672607,349.993500 2072.047607,355.040344 
	C2069.009521,354.874359 2064.850586,353.031799 2062.831055,358.350494 
	C2060.073975,365.611786 2065.993652,368.276642 2069.454346,371.716705 
	C2069.454346,372.983826 2069.738037,373.904999 2069.412598,374.247559 
	C2062.122070,381.922882 2062.773438,389.134186 2069.638428,396.963745 
	C2074.961914,403.035431 2069.418701,409.502869 2068.675049,415.748596 
	C2068.180664,419.901825 2066.549561,423.919678 2064.628418,428.515320 
	C2060.484619,425.789642 2057.117188,422.569153 2053.797119,419.300537 
	C1977.195312,343.888367 1891.729736,280.400085 1797.524536,228.641983 
	C1759.367310,207.677673 1719.990845,189.289185 1679.997559,171.621979 
	C1681.336304,152.104416 1682.968262,133.457199 1683.564331,114.776932 
	C1683.908936,103.978073 1682.583618,93.125916 1682.009888,82.297729 
	C1704.468994,91.377357 1727.213379,99.815414 1749.337158,109.649597 
	C1837.257935,148.730927 1919.572388,197.446091 1995.772095,256.183319 
	C2023.122681,277.266205 2049.050293,300.195190 2075.900391,322.875854 
z"/>
<path fill="#FD1E51" opacity="1.000000" stroke="none" 
	d="
M1411.654297,99.205811 
	C1415.896729,88.638809 1415.692139,77.369125 1415.786743,66.392868 
	C1415.932007,49.558369 1414.666626,32.711697 1413.999878,14.987562 
	C1432.319946,16.858213 1450.818604,18.759012 1468.921631,22.549688 
	C1502.300781,29.539127 1535.447754,37.638149 1569.348145,46.577469 
	C1570.998779,62.309551 1567.693237,76.806503 1571.695679,91.289131 
	C1573.305176,97.112778 1572.783813,103.855881 1569.305542,109.689880 
	C1568.507080,111.029327 1568.292358,112.849648 1568.221680,114.466690 
	C1567.949707,120.681519 1567.845459,126.903702 1566.871338,132.991791 
	C1555.177734,129.928696 1544.303467,126.951164 1533.402710,124.073380 
	C1493.290771,113.483772 1452.558472,105.921730 1411.654297,99.205811 
z"/>
<path fill="#FD0D53" opacity="1.000000" stroke="none" 
	d="
M1567.678589,133.123138 
	C1567.845459,126.903702 1567.949707,120.681519 1568.221680,114.466690 
	C1568.292358,112.849648 1568.507080,111.029327 1569.305542,109.689880 
	C1572.783813,103.855881 1573.305176,97.112778 1571.695679,91.289131 
	C1567.693237,76.806503 1570.998779,62.309551 1570.004883,46.952065 
	C1587.538086,51.039959 1605.227905,55.573128 1622.562744,61.200005 
	C1642.080688,67.535522 1661.278564,74.856789 1681.312744,82.023514 
	C1682.583618,93.125916 1683.908936,103.978073 1683.564331,114.776932 
	C1682.968262,133.457199 1681.336304,152.104416 1679.263672,171.466797 
	C1673.169434,170.057678 1668.030029,167.717163 1662.718018,165.874619 
	C1631.060303,154.893616 1599.362793,144.027695 1567.678589,133.123138 
z"/>
<path fill="#FD1C52" opacity="1.000000" stroke="none" 
	d="
M1455.144531,2464.862793 
	C1453.953247,2457.795410 1454.363892,2451.054932 1457.050049,2443.866943 
	C1459.443726,2437.461426 1458.157104,2429.546875 1457.905762,2422.318604 
	C1457.568604,2412.621094 1456.789307,2402.932617 1455.946533,2393.262207 
	C1455.577515,2389.028809 1454.581421,2384.850098 1454.471191,2379.482422 
	C1483.844116,2371.806641 1512.689697,2365.602051 1541.359741,2358.670654 
	C1559.048218,2354.394287 1576.468872,2349.010742 1594.001831,2344.965820 
	C1593.330078,2350.676758 1591.985107,2355.567627 1592.139038,2360.410889 
	C1592.497925,2371.700684 1597.676025,2382.670166 1594.467163,2394.243652 
	C1594.392456,2394.513428 1594.699585,2394.866699 1594.714233,2395.186523 
	C1594.955322,2400.392334 1595.461060,2405.606201 1595.335571,2410.804199 
	C1595.163330,2417.932129 1594.509277,2425.048340 1594.061768,2432.169678 
	C1576.573853,2437.106201 1559.249390,2442.753906 1541.560669,2446.816162 
	C1513.163086,2453.338135 1484.524414,2458.810791 1455.144531,2464.862793 
z"/>
<path fill="#FD0D53" opacity="1.000000" stroke="none" 
	d="
M1594.844482,2432.142090 
	C1594.509277,2425.048340 1595.163330,2417.932129 1595.335571,2410.804199 
	C1595.461060,2405.606201 1594.955322,2400.392334 1594.714233,2395.186523 
	C1594.699585,2394.866699 1594.392456,2394.513428 1594.467163,2394.243652 
	C1597.676025,2382.670166 1592.497925,2371.700684 1592.139038,2360.410889 
	C1591.985107,2355.567627 1593.330078,2350.676758 1594.686768,2344.658936 
	C1631.596558,2329.880371 1667.813477,2316.250244 1704.030518,2302.620117 
	C1705.858032,2316.132568 1704.223755,2329.672607 1703.707520,2343.142334 
	C1703.389404,2351.443115 1706.637573,2359.420410 1702.984741,2368.367676 
	C1700.063599,2375.522217 1702.222534,2384.750732 1702.187012,2394.066406 
	C1671.780884,2405.960693 1641.329224,2416.889404 1610.832886,2427.692139 
	C1605.865479,2429.451660 1600.700806,2430.654297 1594.844482,2432.142090 
z"/>
<path fill="#111726" opacity="1.000000" stroke="none" 
	d="
M1704.636475,2302.210449 
	C1667.813477,2316.250244 1631.596558,2329.880371 1594.694580,2343.817383 
	C1576.468872,2349.010742 1559.048218,2354.394287 1541.359741,2358.670654 
	C1512.689697,2365.602051 1483.844116,2371.806641 1454.379395,2378.586670 
	C1410.483154,2386.102783 1367.118774,2392.044434 1322.651855,2395.309082 
	C1297.750000,2396.351562 1273.576660,2397.503174 1249.400146,2397.574951 
	C1226.212036,2397.644043 1203.020508,2396.593018 1178.915283,2396.165039 
	C1150.840332,2393.614746 1123.607178,2391.513916 1096.542603,2388.083008 
	C1071.468262,2384.903809 1046.574341,2380.301758 1020.798401,2376.385742 
	C995.443848,2370.649658 970.638367,2365.744385 946.401489,2358.842041 
	C913.206848,2349.388428 880.444214,2338.418213 846.740845,2328.078857 
	C831.822876,2322.331299 817.633301,2316.668701 803.502991,2310.861328 
	C754.482605,2290.716064 707.186646,2267.078613 660.668091,2240.370605 
	C635.941956,2227.859131 614.526550,2211.364990 592.145081,2196.422852 
	C550.918823,2168.899414 512.278076,2137.957031 474.551453,2104.885742 
	C456.995758,2088.294678 439.779816,2072.208496 423.096802,2055.587646 
	C390.371094,2022.983643 360.199677,1988.093140 331.036163,1951.430176 
	C314.815765,1929.072510 298.609344,1907.485229 283.605133,1885.092407 
	C199.339981,1759.333130 141.932693,1622.306519 111.634445,1473.912476 
	C94.636253,1390.659058 86.775948,1306.550293 88.462120,1221.678833 
	C91.659683,1060.733765 126.249481,906.800049 193.521423,760.365295 
	C235.344467,669.326538 288.410614,585.358521 352.077698,507.275696 
	C367.120239,490.022217 381.682434,473.142609 396.817505,456.793304 
	C448.781769,400.660156 505.921600,350.333984 568.194397,304.815002 
	C581.558289,295.523499 594.478088,286.718567 607.511963,278.085876 
	C661.518799,242.315765 718.252808,211.524277 777.916504,184.683075 
	C795.058533,177.511948 811.656860,170.721512 828.369080,164.223862 
	C868.375549,148.669510 909.276917,135.853394 951.341187,124.241501 
	C969.776001,119.894356 987.458313,115.400620 1005.357117,112.070274 
	C1035.014771,106.551987 1064.811768,101.782570 1095.275024,96.362015 
	C1111.865723,94.598114 1127.705322,92.659691 1143.602539,91.846756 
	C1177.771362,90.099472 1211.969727,88.932030 1247.076904,87.343018 
	C1256.959106,87.391411 1265.919922,87.659348 1274.882202,87.850662 
	C1320.113159,88.816185 1365.071655,93.011742 1410.759399,99.196487 
	C1452.558472,105.921730 1493.290771,113.483772 1533.402710,124.073380 
	C1544.303467,126.951164 1555.177734,129.928696 1566.871338,132.991791 
	C1599.362793,144.027695 1631.060303,154.893616 1662.718018,165.874619 
	C1668.030029,167.717163 1673.169434,170.057678 1679.122314,172.323257 
	C1719.990845,189.289185 1759.367310,207.677673 1797.524536,228.641983 
	C1891.729736,280.400085 1977.195312,343.888367 2053.797119,419.300537 
	C2057.117188,422.569153 2060.484619,425.789642 2064.405762,429.431580 
	C2084.243408,451.019867 2104.113770,471.691101 2122.668213,493.482666 
	C2239.296875,630.459351 2319.840820,786.178650 2363.923584,960.643433 
	C2379.285156,1021.439026 2389.225586,1083.130127 2394.555176,1145.641113 
	C2398.809570,1195.543945 2400.011230,1245.527954 2397.438477,1295.429810 
	C2384.085449,1554.437256 2295.175537,1784.427856 2129.126953,1983.796509 
	C2013.766113,2122.305664 1872.842163,2227.512939 1707.911499,2300.435059 
	C1706.999023,2300.838623 1706.131104,2301.343262 1704.636475,2302.210449 
M1543.000000,1475.916992 
	C1560.885010,1475.916992 1578.770142,1475.916992 1597.815063,1475.916992 
	C1597.815063,1343.276855 1597.815063,1211.767822 1597.815063,1080.258789 
	C1598.370850,1080.218994 1598.926636,1080.179199 1599.482544,1080.139404 
	C1633.850098,1211.957520 1668.217651,1343.775513 1702.546143,1475.443481 
	C1769.731934,1475.443481 1835.939819,1475.443481 1902.799194,1475.443481 
	C1911.464722,1442.042969 1920.041992,1408.918823 1928.654541,1375.803833 
	C1937.197021,1342.959106 1945.775513,1310.123657 1954.337402,1277.283936 
	C1962.983276,1244.122070 1971.464111,1210.916138 1980.320435,1177.810669 
	C1989.040771,1145.213989 1996.857056,1112.357666 2006.236450,1079.943237 
	C2006.922363,1080.078369 2007.608154,1080.213501 2008.293945,1080.348511 
	C2008.293945,1211.892090 2008.293945,1343.435669 2008.293945,1475.259277 
	C2045.304443,1475.259277 2081.697754,1475.259277 2118.277832,1475.259277 
	C2118.277832,1319.766602 2118.277832,1164.932129 2118.277832,1009.858276 
	C2048.318604,1009.858276 1978.869995,1009.858276 1909.208252,1009.858276 
	C1874.011719,1144.833252 1838.957642,1279.261963 1803.903564,1413.690552 
	C1803.296875,1413.673828 1802.690063,1413.657227 1802.083374,1413.640625 
	C1766.868286,1278.899902 1731.653076,1144.159302 1696.539429,1009.806763 
	C1625.816528,1009.806763 1556.285645,1009.806763 1486.763916,1009.806763 
	C1486.763916,1165.253540 1486.763916,1320.110352 1486.763916,1475.916992 
	C1505.179443,1475.916992 1523.089722,1475.916992 1543.000000,1475.916992 
M652.718262,1192.136841 
	C627.059082,1131.158569 601.399841,1070.180298 575.927673,1009.646484 
	C540.850159,1007.638428 376.362366,1008.593018 368.720612,1010.721680 
	C368.720612,1165.601807 368.720612,1320.420776 368.720612,1475.558838 
	C405.586884,1475.558838 441.804169,1475.558838 479.239441,1475.558838 
	C479.239441,1471.639893 479.239471,1468.072998 479.239471,1464.505981 
	C479.239471,1428.844482 479.239441,1393.183105 479.239471,1357.521606 
	C479.239532,1266.534912 479.228546,1175.548096 479.284668,1084.561401 
	C479.286682,1081.310669 478.380066,1077.736694 481.084198,1073.635864 
	C537.977600,1208.396118 594.365112,1341.958008 650.639954,1475.253052 
	C671.545288,1477.250610 850.587708,1476.370483 857.275146,1474.384888 
	C857.275146,1319.501709 857.275146,1164.707520 857.275146,1009.877747 
	C820.111389,1009.877747 783.604797,1009.877747 747.287354,1009.877747 
	C747.018433,1010.861938 746.855103,1011.180908 746.854858,1011.499939 
	C746.746033,1143.139038 746.648804,1274.778076 746.538818,1406.417236 
	C746.538269,1407.072876 746.388184,1407.734131 746.252258,1408.381104 
	C746.194031,1408.657959 746.053467,1409.030518 745.840820,1409.133423 
	C745.570862,1409.264160 745.189697,1409.165039 744.160767,1409.165039 
	C713.989868,1337.451416 683.707458,1265.472534 652.718262,1192.136841 
M959.001221,1009.216125 
	C944.459412,1009.216125 929.917542,1009.216125 913.991943,1009.216125 
	C917.005737,1014.547791 919.083618,1018.292542 921.224487,1022.000916 
	C985.469849,1133.285889 1049.688477,1244.586670 1114.062378,1355.797241 
	C1117.536865,1361.799561 1119.156494,1367.707397 1119.095215,1374.644775 
	C1118.830933,1404.632812 1118.982300,1434.624390 1118.982300,1464.614746 
	C1118.982300,1468.191528 1118.982178,1471.768188 1118.982178,1475.875977 
	C1156.657959,1475.942383 1193.117554,1475.921387 1230.004639,1475.903931 
	C1230.004639,1471.100220 1230.004517,1467.789429 1230.004517,1464.478516 
	C1230.004517,1434.821411 1230.214233,1405.161865 1229.861328,1375.508911 
	C1229.770020,1367.838135 1231.788940,1361.477295 1235.588745,1354.913086 
	C1300.632080,1242.552002 1365.488647,1130.082764 1430.359375,1017.621826 
	C1431.736206,1015.235107 1432.792358,1012.663391 1434.319092,1009.516113 
	C1391.183350,1009.516113 1349.285889,1009.516113 1306.819458,1009.516113 
	C1263.059082,1085.544434 1219.280884,1161.603882 1175.042847,1238.462158 
	C1172.418457,1234.160156 1170.285034,1230.816528 1168.299927,1227.386841 
	C1127.610229,1157.086060 1086.880249,1086.808472 1046.377808,1016.399963 
	C1043.363647,1011.160278 1040.141357,1008.979919 1033.975464,1009.070435 
	C1009.655273,1009.427551 985.326599,1009.216614 959.001221,1009.216125 
z"/>
<path fill="#FEFEFE" opacity="1.000000" stroke="none" 
	d="
M1542.000000,1475.916992 
	C1523.089722,1475.916992 1505.179443,1475.916992 1486.763916,1475.916992 
	C1486.763916,1320.110352 1486.763916,1165.253540 1486.763916,1009.806763 
	C1556.285645,1009.806763 1625.816528,1009.806763 1696.539429,1009.806763 
	C1731.653076,1144.159302 1766.868286,1278.899902 1802.083374,1413.640625 
	C1802.690063,1413.657227 1803.296875,1413.673828 1803.903564,1413.690552 
	C1838.957642,1279.261963 1874.011719,1144.833252 1909.208252,1009.858276 
	C1978.869995,1009.858276 2048.318604,1009.858276 2118.277832,1009.858276 
	C2118.277832,1164.932129 2118.277832,1319.766602 2118.277832,1475.259277 
	C2081.697754,1475.259277 2045.304443,1475.259277 2008.293945,1475.259277 
	C2008.293945,1343.435669 2008.293945,1211.892090 2008.293945,1080.348511 
	C2007.608154,1080.213501 2006.922363,1080.078369 2006.236450,1079.943237 
	C1996.857056,1112.357666 1989.040771,1145.213989 1980.320435,1177.810669 
	C1971.464111,1210.916138 1962.983276,1244.122070 1954.337402,1277.283936 
	C1945.775513,1310.123657 1937.197021,1342.959106 1928.654541,1375.803833 
	C1920.041992,1408.918823 1911.464722,1442.042969 1902.799194,1475.443481 
	C1835.939819,1475.443481 1769.731934,1475.443481 1702.546143,1475.443481 
	C1668.217651,1343.775513 1633.850098,1211.957520 1599.482544,1080.139404 
	C1598.926636,1080.179199 1598.370850,1080.218994 1597.815063,1080.258789 
	C1597.815063,1211.767822 1597.815063,1343.276855 1597.815063,1475.916992 
	C1578.770142,1475.916992 1560.885010,1475.916992 1542.000000,1475.916992 
z"/>
<path fill="#FDFDFD" opacity="1.000000" stroke="none" 
	d="
M653.071655,1192.815308 
	C683.707458,1265.472534 713.989868,1337.451416 744.160767,1409.165039 
	C745.189697,1409.165039 745.570862,1409.264160 745.840820,1409.133423 
	C746.053467,1409.030518 746.194031,1408.657959 746.252258,1408.381104 
	C746.388184,1407.734131 746.538269,1407.072876 746.538818,1406.417236 
	C746.648804,1274.778076 746.746033,1143.139038 746.854858,1011.499939 
	C746.855103,1011.180908 747.018433,1010.861938 747.287354,1009.877747 
	C783.604797,1009.877747 820.111389,1009.877747 857.275146,1009.877747 
	C857.275146,1164.707520 857.275146,1319.501709 857.275146,1474.384888 
	C850.587708,1476.370483 671.545288,1477.250610 650.639954,1475.253052 
	C594.365112,1341.958008 537.977600,1208.396118 481.084198,1073.635864 
	C478.380066,1077.736694 479.286682,1081.310669 479.284668,1084.561401 
	C479.228546,1175.548096 479.239532,1266.534912 479.239471,1357.521606 
	C479.239441,1393.183105 479.239471,1428.844482 479.239471,1464.505981 
	C479.239471,1468.072998 479.239441,1471.639893 479.239441,1475.558838 
	C441.804169,1475.558838 405.586884,1475.558838 368.720612,1475.558838 
	C368.720612,1320.420776 368.720612,1165.601807 368.720612,1010.721680 
	C376.362366,1008.593018 540.850159,1007.638428 575.927673,1009.646484 
	C601.399841,1070.180298 627.059082,1131.158569 653.071655,1192.815308 
z"/>
<path fill="#FEFEFE" opacity="1.000000" stroke="none" 
	d="
M960.001160,1009.216187 
	C985.326599,1009.216614 1009.655273,1009.427551 1033.975464,1009.070435 
	C1040.141357,1008.979919 1043.363647,1011.160278 1046.377808,1016.399963 
	C1086.880249,1086.808472 1127.610229,1157.086060 1168.299927,1227.386841 
	C1170.285034,1230.816528 1172.418457,1234.160156 1175.042847,1238.462158 
	C1219.280884,1161.603882 1263.059082,1085.544434 1306.819458,1009.516113 
	C1349.285889,1009.516113 1391.183350,1009.516113 1434.319092,1009.516113 
	C1432.792358,1012.663391 1431.736206,1015.235107 1430.359375,1017.621826 
	C1365.488647,1130.082764 1300.632080,1242.552002 1235.588745,1354.913086 
	C1231.788940,1361.477295 1229.770020,1367.838135 1229.861328,1375.508911 
	C1230.214233,1405.161865 1230.004517,1434.821411 1230.004517,1464.478516 
	C1230.004517,1467.789429 1230.004639,1471.100220 1230.004639,1475.903931 
	C1193.117554,1475.921387 1156.657959,1475.942383 1118.982178,1475.875977 
	C1118.982178,1471.768188 1118.982300,1468.191528 1118.982300,1464.614746 
	C1118.982300,1434.624390 1118.830933,1404.632812 1119.095215,1374.644775 
	C1119.156494,1367.707397 1117.536865,1361.799561 1114.062378,1355.797241 
	C1049.688477,1244.586670 985.469849,1133.285889 921.224487,1022.000916 
	C919.083618,1018.292542 917.005737,1014.547791 913.991943,1009.216125 
	C929.917542,1009.216125 944.459412,1009.216125 960.001160,1009.216187 
z"/>
</svg>