<svg width="22" height="24" viewBox="0 0 22 24" fill="none" xmlns="http://www.w3.org/2000/svg">
<rect width="22" height="23" transform="translate(0 0.369141)" fill="#242B2D" style="fill:#242B2D;fill:color(display-p3 0.1412 0.1686 0.1765);fill-opacity:1;"/>
<path d="M3.37445 18.0517C4.13526 18.9022 8.31411 22.9785 14.8733 18.2477C19.6163 14.3486 19.4978 5.89526 19.0422 3.34251C18.8834 3.71402 13.3743 16.449 3.37445 18.0517ZM19.0415 3.34035C18.9834 3.31501 12.8814 2.43682 6.84898 6.53818C3.10307 9.08499 2.60791 12.8125 2.77882 15.2963C11.5481 14.2604 18.8426 3.6324 19.0415 3.34035Z" fill="#0AD3A4" style="fill:#0AD3A4;fill:color(display-p3 0.0392 0.8275 0.6431);fill-opacity:1;"/>
<path d="M19.0415 3.34035C18.9834 3.31501 12.8814 2.43682 6.84898 6.53818C3.10307 9.08499 2.60791 12.8125 2.77882 15.2963C11.5481 14.2604 18.8426 3.6324 19.0415 3.34035Z" fill="#0AD3A4" style="fill:#0AD3A4;fill:color(display-p3 0.0392 0.8275 0.6431);fill-opacity:1;"/>
</svg>
