<svg width="22" height="24" viewBox="0 0 22 24" fill="none" xmlns="http://www.w3.org/2000/svg">
<rect width="22" height="23" transform="translate(0 0.369141)" fill="#242B2D" style="fill:#242B2D;fill:color(display-p3 0.1412 0.1686 0.1765);fill-opacity:1;"/>
<path d="M12.5958 8.53642C12.6448 5.99766 11.2698 3.78542 10.5535 3.25374C10.5503 3.25032 10.4865 3.21442 10.4914 3.31358C10.4914 3.31528 10.4898 3.31528 10.4898 3.31699C10.4162 8.11247 8.05837 9.40493 6.77812 11.1624C3.93307 15.0705 6.30719 19.5292 9.38278 20.3737C9.43516 20.3874 9.57739 20.4319 9.84719 20.49C9.9878 20.5208 10.0287 20.3959 9.92564 20.2096C9.55776 19.5411 8.9037 18.4128 8.77459 16.963C8.48026 13.5968 12.5385 11.4906 12.5958 8.53642Z" fill="white" style="fill:white;fill-opacity:1;"/>
<path d="M14.1456 10.162C14.121 10.1432 14.0867 10.1449 14.0835 10.1773C14.0181 10.7877 13.4147 12.0528 12.62 13.2358C9.94498 17.2244 11.2924 19.0331 12.3388 20.288C12.5317 20.5205 12.6282 20.4692 12.7296 20.3034C12.8244 20.1461 12.9683 19.9461 13.5864 19.6401C13.6829 19.5922 16.0178 18.2963 16.2712 15.3455C16.5149 12.4905 14.7636 10.6851 14.1456 10.162Z" fill="#008CD6" style="fill:#008CD6;fill:color(display-p3 0.0000 0.5490 0.8392);fill-opacity:1;"/>
</svg>
