<svg version="1.1" id="Layer_1" xmlns="http://www.w3.org/2000/svg" xmlns:xlink="http://www.w3.org/1999/xlink" x="0px" y="0px"
	 viewBox="0 0 5389.9 5389.9" style="enable-background:new 0 0 5389.9 5389.9;" xml:space="preserve">
<style type="text/css">
	.st0{fill:#121726;}
	.st1{fill:url(#SVGID_1_);}
	.st2{fill:#FFFFFF;}
</style>
<g>
	<g>
		<circle class="st0" cx="2695" cy="2695" r="2585"/>
		
			<linearGradient id="SVGID_1_" gradientUnits="userSpaceOnUse" x1="0" y1="8058.165" x2="5390" y2="8058.165" gradientTransform="matrix(1 0 0 -1 0 10753.165)">
			<stop  offset="0" style="stop-color:#F77846"/>
			<stop  offset="1" style="stop-color:#ED3572"/>
		</linearGradient>
		<path class="st1" d="M2695,5390c-182.8,0-365.5-18.4-543-54.8c-173.1-35.4-343.3-88.3-506-157.1
			c-159.7-67.6-313.7-151.2-457.8-248.5c-142.7-96.4-276.8-207.1-398.8-329c-121.9-121.9-232.6-256.1-329-398.8
			C363,4057.8,279.4,3903.8,211.8,3744C143,3581.4,90.2,3411.1,54.8,3238C18.4,3060.5,0,2877.8,0,2695c0-182.8,18.4-365.5,54.8-543
			c35.4-173.1,88.3-343.3,157.1-506c67.6-159.7,151.2-313.7,248.5-457.8c96.4-142.7,207.1-276.8,329-398.8s256.1-232.6,398.8-329
			c144.1-97.3,298.1-180.9,457.8-248.5c162.7-68.8,332.9-121.7,506-157.1C2329.5,18.4,2512.2,0,2695,0c182.8,0,365.5,18.4,543,54.8
			c173.1,35.4,343.3,88.3,506,157.1c159.7,67.6,313.7,151.2,457.8,248.5c142.7,96.4,276.8,207.1,398.8,329
			c121.9,121.9,232.6,256.1,329,398.8c97.3,144.1,180.9,298.1,248.5,457.8c68.8,162.7,121.7,332.9,157.1,506
			c36.3,177.5,54.8,360.2,54.8,543c0,182.8-18.4,365.5-54.8,543c-35.4,173.1-88.3,343.3-157.1,506
			c-67.6,159.7-151.2,313.7-248.5,457.8c-96.4,142.7-207.1,276.8-329,398.8c-121.9,121.9-256.1,232.6-398.8,329
			c-144.1,97.3-298.1,180.9-457.8,248.5c-162.7,68.8-332.9,121.7-506,157.1C3060.5,5371.6,2877.8,5390,2695,5390z M2695,220
			c-168,0-335.9,16.9-498.9,50.3c-158.9,32.5-315.1,81-464.4,144.2c-146.6,62-288.1,138.8-420.4,228.2
			c-131.1,88.6-254.3,190.3-366.4,302.3c-112,112-213.7,235.3-302.3,366.4c-89.4,132.3-166.2,273.7-228.2,420.4
			c-63.2,149.3-111.7,305.6-144.2,464.4C236.9,2359.1,220,2527,220,2695s16.9,335.9,50.3,498.9c32.5,158.9,81,315.1,144.2,464.4
			c62,146.6,138.8,288.1,228.2,420.4c88.6,131.1,190.3,254.3,302.3,366.4c112,112,235.3,213.7,366.4,302.3
			c132.3,89.4,273.7,166.2,420.4,228.2c149.3,63.2,305.6,111.7,464.4,144.2c163.1,33.4,330.9,50.3,498.9,50.3s335.9-16.9,498.9-50.3
			c158.9-32.5,315.1-81,464.4-144.2c146.6-62,288.1-138.8,420.4-228.2c131.1-88.6,254.3-190.3,366.4-302.3
			c112-112,213.7-235.3,302.3-366.4c89.4-132.3,166.2-273.7,228.2-420.4c63.2-149.3,111.7-305.6,144.2-464.4
			c33.4-163.1,50.3-330.9,50.3-498.9s-16.9-335.9-50.3-498.9c-32.5-158.9-81-315.1-144.2-464.4c-62-146.6-138.8-288.1-228.2-420.4
			c-88.6-131.1-190.3-254.3-302.3-366.4c-112-112-235.3-213.7-366.4-302.3c-132.3-89.4-273.7-166.2-420.4-228.2
			c-149.3-63.2-305.6-111.7-464.4-144.2C3030.9,236.9,2863,220,2695,220z"/>
	</g>
</g>
<path class="st2" d="M1958.5,3160.4h-269.6l-735.8-725.3v725.3H734.6v-930.9h276.2l735.8,725.1v-725.1h211.9V3160.4z M4378.9,2229.5
	l-335.7,330.9l-335.7-330.9h-276.2v930.9h218.4v-725.3l345.4,340.6c26.7,26.3,69.6,26.3,96.3,0l345.4-340.6v725.3h218.4v-930.9
	H4378.9z M2589.1,2715.4v445h218.4v-445l502.7-485.9H3034l-335.9,330.9l-335.7-330.9h-276.2L2589.1,2715.4z"/>
</svg>
