<svg width="114" height="115" viewBox="0 0 114 115" fill="none" xmlns="http://www.w3.org/2000/svg">
<path d="M108.376 6.39685H6.021" stroke="white" stroke-miterlimit="10"/>
<path d="M6.021 108.751H108.376" stroke="white" stroke-miterlimit="10"/>
<path d="M108.376 57.5746H6.021" stroke="white" stroke-miterlimit="10"/>
<path d="M57.1984 108.817L31.6097 83.1956L6.021 57.5737L31.6097 31.9519L57.1984 6.33008" stroke="white" stroke-miterlimit="10"/>
<path d="M108.377 108.817L82.7879 83.1956L57.1992 57.5737L82.7879 31.9519L108.377 6.33008" stroke="white" stroke-miterlimit="10"/>
<path d="M57.1992 6.33008L82.7879 31.9519L108.377 57.5737L82.7879 83.1956L57.1992 108.817" stroke="white" stroke-miterlimit="10"/>
<path d="M6.021 6.33008L31.6097 31.9519L57.1984 57.5737L31.6097 83.1956L6.021 108.817" stroke="white" stroke-miterlimit="10"/>
<path d="M108.442 6.33008L82.8206 57.5406L57.1987 108.751L31.5769 57.5406L5.95508 6.33008" stroke="white" stroke-miterlimit="10"/>
<path d="M5.95508 108.751L31.5769 57.5406L57.1987 6.33008L82.8206 57.5406L108.442 108.751" stroke="white" stroke-miterlimit="10"/>
<path d="M108.177 63.5962C111.393 63.5962 114 60.9894 114 57.7737C114 54.558 111.393 51.9512 108.177 51.9512C104.962 51.9512 102.355 54.558 102.355 57.7737C102.355 60.9894 104.962 63.5962 108.177 63.5962Z" fill="white"/>
<path d="M108.177 12.4182C111.393 12.4182 114 9.81131 114 6.59561C114 3.37991 111.393 0.773071 108.177 0.773071C104.962 0.773071 102.355 3.37991 102.355 6.59561C102.355 9.81131 104.962 12.4182 108.177 12.4182Z" fill="white"/>
<path d="M108.177 114.773C111.393 114.773 114 112.166 114 108.95C114 105.735 111.393 103.128 108.177 103.128C104.962 103.128 102.355 105.735 102.355 108.95C102.355 112.166 104.962 114.773 108.177 114.773Z" fill="white"/>
<path d="M57 63.5962C60.2157 63.5962 62.8226 60.9894 62.8226 57.7737C62.8226 54.558 60.2157 51.9512 57 51.9512C53.7843 51.9512 51.1775 54.558 51.1775 57.7737C51.1775 60.9894 53.7843 63.5962 57 63.5962Z" fill="white"/>
<path d="M57 12.4182C60.2157 12.4182 62.8226 9.81131 62.8226 6.59561C62.8226 3.37991 60.2157 0.773071 57 0.773071C53.7843 0.773071 51.1775 3.37991 51.1775 6.59561C51.1775 9.81131 53.7843 12.4182 57 12.4182Z" fill="white"/>
<path d="M57 114.773C60.2157 114.773 62.8226 112.166 62.8226 108.95C62.8226 105.735 60.2157 103.128 57 103.128C53.7843 103.128 51.1775 105.735 51.1775 108.95C51.1775 112.166 53.7843 114.773 57 114.773Z" fill="white"/>
<path d="M5.82254 63.5962C9.03824 63.5962 11.6451 60.9894 11.6451 57.7737C11.6451 54.558 9.03824 51.9512 5.82254 51.9512C2.60684 51.9512 0 54.558 0 57.7737C0 60.9894 2.60684 63.5962 5.82254 63.5962Z" fill="white"/>
<path d="M5.82254 12.4182C9.03824 12.4182 11.6451 9.81131 11.6451 6.59561C11.6451 3.37991 9.03824 0.773071 5.82254 0.773071C2.60684 0.773071 0 3.37991 0 6.59561C0 9.81131 2.60684 12.4182 5.82254 12.4182Z" fill="white"/>
<path d="M5.82254 114.773C9.03824 114.773 11.6451 112.166 11.6451 108.95C11.6451 105.735 9.03824 103.128 5.82254 103.128C2.60684 103.128 0 105.735 0 108.95C0 112.166 2.60684 114.773 5.82254 114.773Z" fill="white"/>
</svg>
