<svg width="88" height="96" viewBox="0 0 22 24" fill="none" xmlns="http://www.w3.org/2000/svg">
<g clip-path="url(#clip0_8889_81261)">
<g clip-path="url(#clip1_8889_81261)">
<path d="M11 21C15.9706 21 20 16.9706 20 12C20 7.02944 15.9706 3 11 3C6.02944 3 2 7.02944 2 12C2 16.9706 6.02944 21 11 21Z" fill="#242B2D" style="fill:#242B2D;fill:color(display-p3 0.1412 0.1686 0.1765);fill-opacity:1;"/>
<g clip-path="url(#clip2_8889_81261)">
<path d="M14.4023 13.4747V9.5293H15.2288V13.4747H14.4023Z" fill="#F7A600" style="fill:#F7A600;fill:color(display-p3 0.9686 0.6510 0.0000);fill-opacity:1;"/>
<path d="M4.76983 14.6466H2.99805V10.7012H4.69858C5.52505 10.7012 6.00662 11.1334 6.00662 11.8095C6.00662 12.2471 5.69734 12.5299 5.48327 12.6241C5.73879 12.7348 6.06587 12.9841 6.06587 13.5108C6.06587 14.2476 5.52505 14.6466 4.76983 14.6466ZM4.63317 11.3884H3.82451V12.2972H4.63317C4.9839 12.2972 5.18015 12.1143 5.18015 11.8427C5.18015 11.5713 4.9839 11.3884 4.63317 11.3884ZM4.6866 12.9899H3.82451V13.9596H4.6866C5.06129 13.9596 5.23941 13.7381 5.23941 13.4719C5.23941 13.206 5.06096 12.9899 4.6866 12.9899Z" fill="white" style="fill:white;fill-opacity:1;"/>
<path d="M8.58718 13.0285V14.6466H7.76655V13.0285L6.49414 10.7012H7.39185L8.18269 12.2915L8.96156 10.7012H9.85927L8.58718 13.0285Z" fill="white" style="fill:white;fill-opacity:1;"/>
<path d="M12.2015 14.6466H10.4297V10.7012H12.1302C12.9567 10.7012 13.4383 11.1334 13.4383 11.8095C13.4383 12.2471 13.129 12.5299 12.9149 12.6241C13.1704 12.7348 13.4975 12.9841 13.4975 13.5108C13.4975 14.2476 12.9567 14.6466 12.2015 14.6466ZM12.0648 11.3884H11.2562V12.2972H12.0648C12.4155 12.2972 12.6118 12.1143 12.6118 11.8427C12.6118 11.5713 12.4155 11.3884 12.0648 11.3884ZM12.1182 12.9899H11.2562V13.9596H12.1182C12.4929 13.9596 12.671 13.7381 12.671 13.4719C12.671 13.206 12.4929 12.9899 12.1182 12.9899Z" fill="white" style="fill:white;fill-opacity:1;"/>
<path d="M17.8914 11.3884V14.6469H17.0649V11.3884H15.959V10.7012H18.9973V11.3884H17.8914Z" fill="white" style="fill:white;fill-opacity:1;"/>
</g>
</g>
</g>
<defs>
<clipPath id="clip0_8889_81261">
<rect width="18" height="18" fill="white" style="fill:white;fill-opacity:1;" transform="translate(2 3)"/>
</clipPath>
<clipPath id="clip1_8889_81261">
<rect width="18" height="18" fill="white" style="fill:white;fill-opacity:1;" transform="translate(2 3)"/>
</clipPath>
<clipPath id="clip2_8889_81261">
<rect width="16" height="6" fill="white" style="fill:white;fill-opacity:1;" transform="translate(3 9)"/>
</clipPath>
</defs>
</svg>
