<svg width="88" height="96" viewBox="0 0 22 24" fill="none" xmlns="http://www.w3.org/2000/svg">
<path d="M11 16.6134C9.79658 16.6134 8.64245 16.1136 7.7915 15.224C6.94056 14.3343 6.4625 13.1277 6.4625 11.8696C6.4625 10.6115 6.94056 9.40492 7.7915 8.51529C8.64245 7.62567 9.79658 7.12588 11 7.12588V3.24463C9.36831 3.24463 7.77325 3.75048 6.41655 4.6982C5.05984 5.64593 4.00242 6.99297 3.378 8.56898C2.75357 10.145 2.5902 11.8792 2.90853 13.5523C3.22685 15.2254 4.01259 16.7622 5.16637 17.9684C6.32015 19.1746 7.79016 19.9961 9.39051 20.3289C10.9908 20.6617 12.6496 20.4909 14.1571 19.8381C15.6646 19.1853 16.9531 18.0798 17.8596 16.6614C18.7661 15.243 19.25 13.5755 19.25 11.8696H15.5375C15.5375 13.1277 15.0594 14.3343 14.2085 15.224C13.3576 16.1136 12.2034 16.6134 11 16.6134Z" fill="#2354E6" style="fill:#2354E6;fill:color(display-p3 0.1373 0.3294 0.9020);fill-opacity:1;"/>
<path d="M15.5375 7.12549H11V11.8692H15.5375V7.12549Z" fill="#17E6A1" style="fill:#17E6A1;fill:color(display-p3 0.0902 0.9020 0.6314);fill-opacity:1;"/>
</svg>
