<svg width="88" height="92" viewBox="0 0 22 23" fill="none" xmlns="http://www.w3.org/2000/svg">
<g clip-path="url(#clip0_8889_81257)">
<path d="M11 20.6309C15.9706 20.6309 20 16.6014 20 11.6309C20 6.6603 15.9706 2.63086 11 2.63086C6.02944 2.63086 2 6.6603 2 11.6309C2 16.6014 6.02944 20.6309 11 20.6309Z" fill="#5741D9" style="fill:#5741D9;fill:color(display-p3 0.3412 0.2549 0.8510);fill-opacity:1;"/>
<path d="M6.50256 12.9043C6.50256 12.7329 6.50555 12.5617 6.5015 12.3903C6.4935 12.0594 6.51746 11.7286 6.57305 11.4024C6.66797 10.855 6.84041 10.3382 7.12236 9.86026C7.59521 9.05746 8.26195 8.46719 9.10166 8.07151C9.47251 7.89414 9.86735 7.77208 10.2736 7.70922C10.4861 7.67688 10.6995 7.65051 10.9159 7.65244C11.8352 7.6593 12.6913 7.88641 13.4647 8.39354C14.2225 8.89082 14.7913 9.54877 15.1331 10.3938C15.2908 10.7908 15.3955 11.2069 15.4446 11.6313C15.5024 12.1002 15.5052 12.5712 15.4973 13.0431C15.4924 13.2977 15.4934 13.5529 15.4894 13.8067C15.4874 13.9173 15.4836 14.028 15.4542 14.1367C15.3396 14.5585 14.858 14.7505 14.505 14.5165C14.3468 14.4128 14.2691 14.2601 14.2413 14.0771C14.2218 13.9547 14.2119 13.831 14.212 13.7071V12.1709C14.212 11.9702 14.1494 11.7919 14.0123 11.6436C13.7723 11.386 13.4043 11.3762 13.135 11.6142C12.9841 11.7483 12.9156 11.9187 12.901 12.1145C12.8952 12.188 12.8931 12.2613 12.8931 12.3347C12.892 12.8997 12.8941 13.4636 12.8901 14.0286C12.8871 14.3487 12.644 14.5935 12.3174 14.616C12.167 14.6273 12.0179 14.582 11.8991 14.4892C11.7803 14.3963 11.7004 14.2624 11.6751 14.1138C11.6612 14.0284 11.6547 13.9419 11.6556 13.8554C11.6556 13.2875 11.6566 12.7197 11.6556 12.1517C11.6582 11.9649 11.5867 11.7847 11.4568 11.6504C11.1875 11.3674 10.7821 11.3762 10.5207 11.6671C10.3924 11.8091 10.3367 11.9746 10.3367 12.1635C10.3367 12.7246 10.3356 13.2866 10.3367 13.8475C10.3367 13.9923 10.3191 14.1344 10.2594 14.2674C10.2116 14.3784 10.131 14.4721 10.0285 14.536C9.9259 14.5999 9.80627 14.6309 9.68561 14.6248C9.44566 14.6169 9.24299 14.4666 9.15105 14.2253C9.11543 14.1304 9.09756 14.0298 9.09832 13.9285C9.09926 13.3851 9.09891 12.8417 9.09727 12.2983C9.09727 12.1779 9.09234 12.0565 9.05613 11.9399C8.97387 11.6726 8.79562 11.5022 8.52053 11.4572C8.24051 11.4112 8.03291 11.5434 7.87734 11.7685C7.80299 11.8763 7.77838 11.9971 7.77838 12.1259C7.77838 12.6415 7.77873 13.1572 7.77943 13.6728C7.77943 13.8245 7.78242 13.9764 7.74814 14.1261C7.69137 14.3748 7.45248 14.6461 7.09125 14.6195C6.84252 14.6009 6.60363 14.3952 6.5342 14.1319C6.51076 14.0388 6.4993 13.943 6.5001 13.847C6.50309 13.5306 6.50309 13.2175 6.50203 12.9041L6.50256 12.9043Z" fill="white" style="fill:white;fill-opacity:1;"/>
</g>
<defs>
<clipPath id="clip0_8889_81257">
<rect width="18" height="18" fill="white" style="fill:white;fill-opacity:1;" transform="translate(2 2.63086)"/>
</clipPath>
</defs>
</svg>
