<?xml version="1.0" encoding="utf-8"?>
<!-- Generator: Adobe Illustrator 25.3.1, SVG Export Plug-In . SVG Version: 6.00 Build 0)  -->
<svg version="1.1" id="Layer_1" xmlns="http://www.w3.org/2000/svg" xmlns:xlink="http://www.w3.org/1999/xlink" x="0px" y="0px"
     viewBox="0 0 500 500" style="enable-background:new 0 0 500 500;" xml:space="preserve">
<style type="text/css">
	.st0{fill:#121726;}
	.st1{fill:url(#SVGID_1_);}
	.st2{fill:#FFFFFF;}
</style>
  <g>
	<g>
		<circle class="st0" cx="250" cy="250.1" r="239.8"/>

    <linearGradient id="SVGID_1_" gradientUnits="userSpaceOnUse" x1="4.980469e-02" y1="5613.9395" x2="500.0498" y2="5613.9395" gradientTransform="matrix(1 0 0 -1 0 5863.9897)">
			<stop  offset="0" style="stop-color:#E1864B"/>
      <stop  offset="1" style="stop-color:#DA465B"/>
		</linearGradient>
    <path class="st1" d="M250,500.1c-17,0-33.9-1.7-50.4-5.1c-16.1-3.3-31.8-8.2-46.9-14.6c-14.8-6.3-29.1-14-42.5-23.1
			c-13.2-8.9-25.7-19.2-37-30.5c-11.3-11.3-21.6-23.8-30.5-37c-9-13.4-16.8-27.6-23.1-42.5c-6.4-15.1-11.3-30.9-14.6-46.9
			C1.8,284,0,267,0,250.1s1.7-33.9,5.1-50.4c3.3-16.1,8.2-31.8,14.6-46.9c6.3-14.8,14-29.1,23.1-42.5C51.7,97,62,84.6,73.3,73.3
			s23.8-21.6,37-30.5c13.4-9,27.7-16.8,42.5-23.1c15.1-6.4,30.9-11.3,46.9-14.6c16.5-3.4,33.4-5.1,50.4-5.1c17,0,33.9,1.7,50.4,5.1
			c16.1,3.3,31.8,8.2,46.9,14.6c14.8,6.3,29.1,14,42.5,23.1c13.2,8.9,25.7,19.2,37,30.5c11.3,11.3,21.6,23.8,30.5,37
			c9,13.4,16.8,27.7,23.1,42.5c6.4,15.1,11.3,30.9,14.6,46.9c3.4,16.5,5.1,33.4,5.1,50.4s-1.7,33.9-5.1,50.4
			c-3.3,16.1-8.2,31.8-14.6,46.9c-6.3,14.8-14,29.1-23.1,42.5c-8.9,13.2-19.2,25.7-30.5,37c-11.3,11.3-23.8,21.6-37,30.5
			c-13.4,9-27.7,16.8-42.5,23.1c-15.1,6.4-30.9,11.3-46.9,14.6C284,498.3,267,500.1,250,500.1z M250,20.5c-15.6,0-31.2,1.6-46.3,4.7
			c-14.7,3-29.2,7.5-43.1,13.4c-13.6,5.8-26.7,12.9-39,21.2c-12.2,8.2-23.6,17.7-34,28c-10.4,10.4-19.8,21.8-28,34
			c-8.3,12.3-15.4,25.4-21.2,39c-5.9,13.8-10.4,28.3-13.4,43.1c-3.1,15.1-4.7,30.7-4.7,46.3s1.6,31.2,4.7,46.3
			c3,14.7,7.5,29.2,13.4,43.1c5.8,13.6,12.9,26.7,21.2,39c8.2,12.2,17.7,23.6,28,34c10.4,10.4,21.8,19.8,34,28
			c12.3,8.3,25.4,15.4,39,21.2c13.8,5.9,28.3,10.4,43.1,13.4c15.1,3.1,30.7,4.7,46.3,4.7c15.6,0,31.2-1.6,46.3-4.7
			c14.7-3,29.2-7.5,43.1-13.4c13.6-5.8,26.7-12.9,39-21.2c12.2-8.2,23.6-17.7,34-28c10.4-10.4,19.8-21.8,28-34
			c8.3-12.3,15.4-25.4,21.2-39c5.9-13.8,10.4-28.3,13.4-43.1c3.1-15.1,4.7-30.7,4.7-46.3s-1.6-31.2-4.7-46.3
			c-3-14.7-7.5-29.2-13.4-43.1c-5.8-13.6-12.9-26.7-21.2-39c-8.2-12.2-17.7-23.6-28-34c-10.4-10.4-21.8-19.8-34-28
			c-12.3-8.3-25.4-15.4-39-21.2c-13.8-5.9-28.3-10.4-43.1-13.4C281.2,22,265.6,20.5,250,20.5z"/>
	</g>
</g>
  <path class="st2" d="M369.8,341.2h-52.8l-144-142v142h-42.8V158.9h54.1l144,141.9V158.9h41.5V341.2z"/>
</svg>
