<svg width="361" height="361" viewBox="0 0 361 361" fill="none" xmlns="http://www.w3.org/2000/svg">
<g clip-path="url(#clip0_236_24563)">
<path d="M180.789 120.41V150.41H210.789V180.41H240.789V180.41C240.789 147.273 213.926 120.41 180.789 120.41V120.41Z" fill="#14E76F" style="fill:#14E76F;fill:color(display-p3 0.0784 0.9059 0.4353);fill-opacity:1;"/>
<path d="M180.789 240.487L180.789 210.487L150.789 210.487L150.789 180.487L120.789 180.487V180.487C120.789 213.624 147.652 240.487 180.789 240.487V240.487Z" fill="#14E76F" style="fill:#14E76F;fill:color(display-p3 0.0784 0.9059 0.4353);fill-opacity:1;"/>
<path d="M120.789 180.41L150.789 180.41L150.789 150.41L180.789 150.41L180.789 120.41V120.41C147.652 120.41 120.789 147.273 120.789 180.41V180.41Z" fill="#14E76F" style="fill:#14E76F;fill:color(display-p3 0.0784 0.9059 0.4353);fill-opacity:1;"/>
<path d="M240.789 180.487L210.789 180.487L210.789 210.487L180.789 210.487L180.789 240.487V240.487C213.926 240.487 240.789 213.624 240.789 180.487V180.487Z" fill="#14E76F" style="fill:#14E76F;fill:color(display-p3 0.0784 0.9059 0.4353);fill-opacity:1;"/>
<path d="M330.773 120.41L330.773 150.41V150.41C347.342 150.41 360.773 136.979 360.773 120.41V120.41L330.773 120.41Z" fill="#14E76F" style="fill:#14E76F;fill:color(display-p3 0.0784 0.9059 0.4353);fill-opacity:1;"/>
<path d="M270.789 60.4102L270.789 90.4102L300.789 90.4102L300.789 60.4102L270.789 60.4102Z" fill="#14E76F" style="fill:#14E76F;fill:color(display-p3 0.0784 0.9059 0.4353);fill-opacity:1;"/>
<path d="M240.789 30.4102L240.789 60.4102L270.789 60.4102L270.789 30.4102L240.789 30.4102Z" fill="#14E76F" style="fill:#14E76F;fill:color(display-p3 0.0784 0.9059 0.4353);fill-opacity:1;"/>
<path d="M60.7891 30.4102L60.7891 60.4102L90.7891 60.4102L90.7891 30.4102L60.7891 30.4102Z" fill="#14E76F" style="fill:#14E76F;fill:color(display-p3 0.0784 0.9059 0.4353);fill-opacity:1;"/>
<path d="M30.7734 60.4102L30.7734 90.4102L60.7734 90.4102L60.7734 60.4102L30.7734 60.4102Z" fill="#14E76F" style="fill:#14E76F;fill:color(display-p3 0.0784 0.9059 0.4353);fill-opacity:1;"/>
<path d="M90.7891 0.410156L90.7891 30.4102L240.789 30.4102L240.789 0.410181L90.7891 0.410156Z" fill="#14E76F" style="fill:#14E76F;fill:color(display-p3 0.0784 0.9059 0.4353);fill-opacity:1;"/>
<rect width="30" height="150.466" transform="matrix(-1.62921e-07 1 1 1.62921e-07 180.789 120.41)" fill="#14E76F" style="fill:#14E76F;fill:color(display-p3 0.0784 0.9059 0.4353);fill-opacity:1;"/>
<rect width="120" height="30" transform="matrix(-1.62921e-07 1 1 1.62921e-07 330.773 0.410156)" fill="#14E76F" style="fill:#14E76F;fill:color(display-p3 0.0784 0.9059 0.4353);fill-opacity:1;"/>
<path d="M301.023 90.4102L301.023 120.41L331.023 120.41L331.023 90.4102L301.023 90.4102Z" fill="#14E76F" style="fill:#14E76F;fill:color(display-p3 0.0784 0.9059 0.4353);fill-opacity:1;"/>
<path d="M30.7734 240.41L30.7734 210.41V210.41C14.2049 210.41 0.77344 223.842 0.773438 240.41V240.41L30.7734 240.41Z" fill="#14E76F" style="fill:#14E76F;fill:color(display-p3 0.0784 0.9059 0.4353);fill-opacity:1;"/>
<path d="M90.7734 300.41L90.7734 270.41L60.7734 270.41L60.7734 300.41L90.7734 300.41Z" fill="#14E76F" style="fill:#14E76F;fill:color(display-p3 0.0784 0.9059 0.4353);fill-opacity:1;"/>
<path d="M120.773 330.41L120.773 300.41L90.7734 300.41L90.7734 330.41L120.773 330.41Z" fill="#14E76F" style="fill:#14E76F;fill:color(display-p3 0.0784 0.9059 0.4353);fill-opacity:1;"/>
<path d="M300.773 330.41L300.773 300.41L270.773 300.41L270.773 330.41L300.773 330.41Z" fill="#14E76F" style="fill:#14E76F;fill:color(display-p3 0.0784 0.9059 0.4353);fill-opacity:1;"/>
<path d="M330.773 300.41L330.773 270.41L300.773 270.41L300.773 300.41L330.773 300.41Z" fill="#14E76F" style="fill:#14E76F;fill:color(display-p3 0.0784 0.9059 0.4353);fill-opacity:1;"/>
<path d="M270.773 360.41L270.773 330.41L120.773 330.41L120.773 360.41L270.773 360.41Z" fill="#14E76F" style="fill:#14E76F;fill:color(display-p3 0.0784 0.9059 0.4353);fill-opacity:1;"/>
<rect width="30" height="150.481" transform="matrix(1.62921e-07 -1 -1 -1.62921e-07 180.789 240.41)" fill="#14E76F" style="fill:#14E76F;fill:color(display-p3 0.0784 0.9059 0.4353);fill-opacity:1;"/>
<rect width="120" height="30" transform="matrix(1.62921e-07 -1 -1 -1.62921e-07 30.7734 360.41)" fill="#14E76F" style="fill:#14E76F;fill:color(display-p3 0.0784 0.9059 0.4353);fill-opacity:1;"/>
<path d="M60.5391 270.41L60.5391 240.41L30.5391 240.41L30.5391 270.41L60.5391 270.41Z" fill="#14E76F" style="fill:#14E76F;fill:color(display-p3 0.0784 0.9059 0.4353);fill-opacity:1;"/>
</g>
<defs>
<clipPath id="clip0_236_24563">
<rect width="360" height="360" fill="white" style="fill:white;fill-opacity:1;" transform="translate(0.773438 0.410156)"/>
</clipPath>
</defs>
</svg>
