<svg width="32" height="32" viewBox="0 0 32 32" fill="none" xmlns="http://www.w3.org/2000/svg">
<path d="M21.8343 11.2552C23.7199 14.0472 24.6511 17.1964 24.303 20.8219C24.3015 20.8372 24.2936 20.8513 24.2811 20.8606C22.8532 21.9165 21.4697 22.5573 20.1057 22.9823C20.0951 22.9855 20.0837 22.9853 20.0732 22.9817C20.0627 22.9782 20.0535 22.9714 20.047 22.9623C19.7319 22.5207 19.4456 22.0552 19.1947 21.5663C19.1803 21.5375 19.1935 21.5028 19.2231 21.4915C19.6779 21.3189 20.1103 21.1121 20.5262 20.8673C20.559 20.8479 20.5611 20.8007 20.5308 20.778C20.4425 20.712 20.3551 20.6426 20.2714 20.5733C20.2557 20.5604 20.2347 20.5579 20.2169 20.5665C17.5166 21.8223 14.5586 21.8223 11.8263 20.5665C11.8086 20.5585 11.7875 20.5613 11.7723 20.5739C11.6888 20.6432 11.6011 20.712 11.5137 20.778C11.4834 20.8007 11.4859 20.8479 11.5189 20.8673C11.9349 21.1075 12.3673 21.3189 12.8214 21.4923C12.8508 21.5037 12.8648 21.5375 12.8502 21.5663C12.6048 22.0558 12.3184 22.5213 11.9975 22.9629C11.9835 22.9808 11.9605 22.989 11.9388 22.9823C10.5813 22.5573 9.19781 21.9165 7.76992 20.8606C7.75802 20.8513 7.74947 20.8366 7.74822 20.8213C7.45729 17.6853 8.0502 14.51 10.2146 11.2546C10.2198 11.246 10.2277 11.2393 10.2369 11.2353C11.3019 10.743 12.4428 10.3809 13.6353 10.1741C13.657 10.1707 13.6787 10.1808 13.69 10.2002C13.8373 10.4629 14.0057 10.7998 14.1197 11.0751C15.3767 10.8818 16.6532 10.8818 17.9365 11.0751C18.0505 10.8057 18.213 10.4629 18.3597 10.2002C18.365 10.1906 18.3731 10.1829 18.3829 10.1782C18.3927 10.1735 18.4037 10.1721 18.4144 10.1741C19.6075 10.3815 20.7485 10.7437 21.8126 11.2353C21.822 11.2393 21.8297 11.246 21.8343 11.2552V11.2552ZM14.7587 17.2178C14.7719 16.2908 14.1007 15.5236 13.2582 15.5236C12.4226 15.5236 11.7579 16.284 11.7579 17.2178C11.7579 18.1514 12.4357 18.9118 13.2582 18.9118C14.094 18.9118 14.7587 18.1514 14.7587 17.2178V17.2178ZM20.3062 17.2178C20.3194 16.2908 19.6482 15.5236 18.8059 15.5236C17.9701 15.5236 17.3054 16.284 17.3054 17.2178C17.3054 18.1514 17.9833 18.9118 18.8059 18.9118C19.6482 18.9118 20.3062 18.1514 20.3062 17.2178V17.2178Z" fill="currentColor"/>
</svg>
