<svg xmlns="http://www.w3.org/2000/svg" width="12" height="12" viewBox="0 0 12 12" fill="none">
<path d="M2.5 5H2V4H3V4.5H3.5V5H4V5.5H4.5V6H5V6.5H5.5V0.5H6.5V6.5H7V6H7.5V5.5H8V5H8.5V4.5H9V4H10V5H9.5V5.5H9V6H8.5V6.5H8V7H7.5V7.5H7V8H6.5V8.5H5.5V8H5V7.5H4.5V7H4V6.5H3.5V6H3V5.5H2.5V5Z" fill="#242B2D" style="fill:#242B2D;fill:color(display-p3 0.1412 0.1686 0.1765);fill-opacity:1;"/>
<path d="M11 10.5H1V11.5H11V10.5Z" fill="#242B2D" style="fill:#242B2D;fill:color(display-p3 0.1412 0.1686 0.1765);fill-opacity:1;"/>
</svg>