<svg width="85" height="84" viewBox="0 0 85 84" fill="none" xmlns="http://www.w3.org/2000/svg">
<g clip-path="url(#clip0_11897_1105)">
<path d="M42.3334 28V35H49.3334V42H56.3334C56.3334 34.268 50.0654 28 42.3334 28Z" fill="#242B2D"/>
<path d="M42.3334 56L42.3334 49L35.3334 49L35.3334 42L28.3334 42C28.3334 49.732 34.6014 56 42.3334 56Z" fill="#242B2D"/>
<path d="M28.3334 42L35.3334 42L35.3334 35L42.3334 35L42.3334 28C34.6014 28 28.3334 34.268 28.3334 42Z" fill="#242B2D"/>
<path d="M56.3334 42L49.3334 42L49.3334 49L42.3334 49L42.3334 56C50.0654 56 56.3334 49.732 56.3334 42Z" fill="#242B2D"/>
<path d="M28.3334 84L28.3334 77L7.33337 77L7.33337 56L0.333372 56L0.333372 70C0.333371 77.732 6.60138 84 14.3334 84L28.3334 84Z" fill="#242B2D"/>
<path d="M56.3334 5.72205e-06L56.3334 7.00001L77.3334 7.00001L77.3334 28L84.3334 28L84.3334 14C84.3334 6.26802 78.0654 5.9812e-06 70.3334 5.88899e-06L56.3334 5.72205e-06Z" fill="#242B2D"/>
<path d="M84.3334 56L77.3334 56L77.3334 77L56.3334 77L56.3334 84L70.3334 84C78.0654 84 84.3334 77.732 84.3334 70L84.3334 56Z" fill="#242B2D"/>
<path d="M0.33338 28L7.33338 28L7.33338 7L28.3334 7L28.3334 -1.90735e-06L14.3334 -3.13127e-06C6.60139 -3.80722e-06 0.333382 6.26801 0.333381 14L0.33338 28Z" fill="#242B2D"/>
</g>
<defs>
<clipPath id="clip0_11897_1105">
<rect width="84" height="84" fill="white" transform="translate(0.333374)"/>
</clipPath>
</defs>
</svg>
