<svg width="89" height="25" viewBox="0 0 89 25" fill="none" xmlns="http://www.w3.org/2000/svg">
<path d="M0 2.73999C0 1.50288 1.00579 0.5 2.2465 0.5H10.4256C11.8792 0.5 13.1513 1.47412 13.5263 2.87439L18.7506 22.3815C18.8474 22.7432 19.3816 22.6733 19.3816 22.299V0.5H25.8001V22.2599C25.8001 23.497 24.7943 24.4999 23.5536 24.4999H15.314C13.8643 24.4999 12.5946 23.5308 12.216 22.1355L7.04928 3.0892C6.95141 2.72844 6.41855 2.79902 6.41855 3.17275V24.4999H0V2.73999Z" fill="white"/>
<path d="M55.5159 0.500025C54.2752 0.500025 53.2694 1.5029 53.2694 2.74002V24.4999H59.6879V3.18233C59.6879 2.79548 60.2483 2.74066 60.3237 3.12013L64.0601 21.9219C64.3579 23.4203 65.6762 24.4999 67.2082 24.4999L74.6942 24.4999C76.2294 24.4999 77.5496 23.4158 77.8439 21.9135L81.5171 3.16662C81.5916 2.78643 82.153 2.84061 82.153 3.22798V24.4999H88.5714V2.74002C88.5714 1.5029 87.5656 0.500025 86.3249 0.500025L78.3813 0.50002C76.859 0.500019 75.5461 1.56646 75.2383 3.05306L71.2361 22.3844C71.1655 22.7251 70.6773 22.7246 70.6074 22.3838L66.6405 3.05837C66.3349 1.56926 65.0208 0.500019 63.4964 0.50002L55.5159 0.500025Z" fill="white"/>
<path d="M26.5569 0.50009H33.3531L39.2253 13.0169C39.4563 13.5093 40.1589 13.5085 40.3888 13.0155L46.2237 0.50009H53.1458L41.8949 24.5H34.9858L39.4713 14.9H35.3564C34.1107 14.9 32.9775 14.1813 32.4496 13.0563L26.5569 0.50009Z" fill="white"/>
</svg>
